<?xml version="1.0" standalone="no"?>
<!DOCTYPE svg PUBLIC "-//W3C//DTD SVG 20010904//EN"
 "http://www.w3.org/TR/2001/REC-SVG-20010904/DTD/svg10.dtd">
<svg version="1.0" xmlns="http://www.w3.org/2000/svg"
 width="3876.000000pt" height="3876.000000pt" viewBox="0 0 3876.000000 3876.000000"
 preserveAspectRatio="xMidYMid meet">
<metadata>
Created by potrace 1.11, written by Peter Selinger 2001-2013
</metadata>
<g transform="translate(0.000000,3876.000000) scale(0.100000,-0.100000)"
fill="#000000" stroke="none">
<path d="M3057 37760 c-16 -5 -70 -12 -120 -15 -66 -5 -105 -14 -137 -30 -44
-22 -120 -51 -169 -62 -14 -3 -49 -19 -79 -35 -30 -15 -58 -28 -63 -28 -6 0
-29 -9 -51 -20 -23 -11 -54 -20 -70 -20 -15 0 -28 -4 -28 -8 0 -5 -26 -15 -57
-22 -32 -8 -67 -20 -78 -27 -11 -7 -29 -13 -40 -13 -11 0 -38 -9 -60 -20 -21
-11 -41 -18 -43 -15 -3 2 -19 -2 -36 -9 -23 -9 -113 -13 -336 -14 -304 -2
-304 -2 -380 -29 -41 -14 -95 -40 -120 -56 -64 -43 -205 -193 -235 -250 -6
-12 -20 -35 -30 -50 -17 -26 -35 -72 -85 -217 -33 -98 -43 -218 -37 -475 3
-163 10 -269 22 -330 9 -49 18 -101 19 -115 2 -14 11 -42 20 -64 9 -21 16 -42
16 -47 0 -5 9 -24 20 -44 11 -20 20 -43 20 -53 0 -9 9 -32 20 -49 11 -18 19
-47 19 -65 -1 -18 4 -46 10 -61 6 -16 11 -48 11 -72 0 -24 4 -47 10 -50 6 -3
10 -19 10 -34 0 -15 9 -36 20 -46 11 -10 20 -26 20 -36 0 -9 21 -39 46 -65 54
-58 67 -80 58 -97 -4 -6 -4 -9 0 -6 3 3 45 -31 93 -77 48 -46 90 -81 94 -78 4
2 28 -11 52 -30 66 -50 106 -69 133 -62 22 6 24 4 18 -19 -5 -22 -2 -26 25
-31 17 -4 31 -10 31 -14 0 -5 18 -11 40 -15 22 -4 40 -10 40 -14 0 -3 28 -22
63 -40 34 -19 78 -47 97 -63 19 -15 40 -28 46 -28 7 0 25 -15 41 -33 16 -18
36 -36 45 -40 9 -3 31 -27 49 -54 40 -58 48 -66 77 -82 12 -6 22 -17 22 -24 0
-14 72 -48 110 -52 14 -1 33 -6 43 -10 10 -4 38 -5 62 -2 26 2 45 0 45 -5 0
-6 6 -8 14 -5 8 3 17 -1 20 -9 3 -8 16 -14 29 -14 13 0 32 -7 43 -15 10 -8 26
-15 35 -15 9 0 23 -7 30 -16 7 -9 22 -20 34 -25 42 -20 62 -35 107 -81 25 -27
51 -48 56 -48 6 0 23 -21 39 -46 15 -26 38 -63 51 -83 12 -20 32 -56 44 -81
11 -25 30 -56 40 -70 24 -30 48 -86 48 -110 0 -10 18 -59 41 -110 23 -51 42
-99 43 -106 1 -7 5 -17 9 -20 4 -4 7 -24 7 -45 0 -20 5 -39 10 -41 6 -2 12
-19 15 -38 2 -19 9 -36 15 -38 5 -2 10 -11 10 -20 0 -9 7 -30 15 -46 8 -15 15
-35 15 -42 0 -8 9 -22 20 -31 21 -19 28 -77 10 -88 -12 -7 -10 -65 2 -65 4 0
8 -7 8 -16 0 -8 -4 -13 -8 -10 -10 6 -8 -51 1 -61 4 -3 2 -12 -4 -19 -7 -8 -7
-19 -1 -30 6 -11 5 -27 -1 -44 -8 -21 -7 -38 4 -67 9 -25 12 -60 9 -106 -3
-38 -1 -71 3 -74 5 -3 6 -17 2 -31 -4 -16 -1 -28 6 -33 11 -6 11 -12 1 -31
-14 -26 -13 -87 2 -106 6 -8 6 -16 0 -20 -5 -4 -9 -87 -9 -187 0 -158 -2 -182
-17 -197 -10 -10 -17 -21 -15 -25 1 -5 -8 -18 -21 -31 -12 -12 -22 -33 -22
-47 0 -14 -7 -28 -15 -31 -8 -4 -15 -13 -15 -21 0 -8 -13 -33 -29 -57 -16 -23
-33 -59 -36 -79 -4 -21 -11 -40 -16 -43 -5 -3 -6 -11 -2 -17 11 -17 13 -35 21
-174 4 -67 10 -125 14 -129 4 -3 3 -15 -3 -26 -7 -13 -7 -23 0 -32 6 -7 9 -15
6 -18 -3 -2 -5 -96 -6 -209 -2 -157 2 -219 14 -270 9 -37 17 -83 19 -103 1
-19 4 -33 7 -31 2 3 15 -23 27 -57 12 -35 31 -88 42 -118 11 -30 29 -62 40
-70 15 -13 19 -30 21 -90 1 -41 6 -100 12 -130 12 -61 7 -181 -11 -280 -7 -36
-14 -92 -16 -125 -6 -94 -7 -100 -17 -106 -5 -4 -10 -35 -12 -70 -1 -35 -10
-95 -19 -134 -15 -62 -16 -141 -11 -725 5 -696 12 -1016 21 -1040 4 -8 9 -42
11 -75 3 -33 9 -65 14 -71 5 -6 8 -39 6 -73 -2 -34 -1 -81 3 -105 3 -23 3 -51
-1 -62 -3 -10 -2 -27 3 -36 5 -11 5 -25 0 -35 -6 -12 -5 -31 3 -53 9 -25 9
-40 1 -52 -8 -13 -7 -26 1 -48 6 -17 8 -42 4 -58 -4 -15 -3 -46 2 -70 6 -30 5
-47 -3 -57 -8 -10 -8 -19 -1 -34 7 -12 11 -91 11 -200 0 -187 6 -232 46 -337
16 -42 21 -73 17 -97 -3 -20 -1 -37 6 -41 13 -8 16 -416 3 -416 -4 0 -9 -12
-10 -26 -1 -15 -6 -32 -11 -38 -5 -6 -11 -24 -14 -41 -3 -16 -12 -50 -21 -75
-14 -39 -16 -113 -16 -532 0 -345 -3 -494 -11 -512 -9 -20 -9 -29 1 -41 9 -11
10 -19 3 -23 -11 -7 -18 -45 -29 -157 -4 -33 -10 -64 -14 -70 -4 -5 -8 -56 -9
-112 -1 -56 -6 -117 -12 -135 -12 -43 -11 -511 1 -563 5 -22 10 -232 10 -467
1 -296 4 -428 11 -428 8 0 9 -26 4 -82 -6 -73 -7 -189 -4 -518 0 -47 -2 -113
-5 -147 -6 -55 -4 -64 16 -83 22 -20 22 -24 23 -303 0 -280 0 -282 23 -300 15
-13 22 -29 22 -53 0 -22 5 -34 14 -34 17 0 27 -37 20 -67 -5 -18 -10 -20 -30
-13 -23 9 -25 8 -24 -23 0 -125 -13 -294 -25 -307 -10 -11 -11 -20 -4 -33 6
-9 6 -23 2 -30 -4 -6 -9 -28 -9 -47 -3 -51 -14 -92 -33 -114 -13 -14 -17 -47
-19 -170 -1 -83 -5 -158 -9 -166 -3 -8 -7 -46 -10 -85 -2 -38 -8 -86 -14 -106
-12 -39 -7 -193 10 -299 6 -36 13 -90 17 -120 3 -30 10 -56 15 -58 12 -5 12
-32 0 -32 -10 0 -7 -196 4 -250 4 -19 12 -40 17 -47 5 -7 11 -36 13 -65 1 -29
4 -53 5 -53 5 0 10 -54 14 -165 10 -216 17 -303 32 -363 9 -32 14 -67 11 -77
-3 -11 0 -27 7 -37 6 -10 11 -45 10 -78 -1 -33 3 -67 7 -76 5 -9 11 -54 13
-100 18 -294 22 -348 32 -360 7 -8 15 -30 19 -49 4 -19 14 -43 22 -52 9 -10
12 -25 8 -37 -3 -11 -2 -28 3 -38 16 -31 32 -88 32 -116 0 -14 4 -28 9 -31 11
-7 28 -74 35 -141 2 -16 6 -37 9 -45 4 -8 8 -134 9 -280 3 -218 6 -270 19
-295 87 -165 113 -209 134 -231 14 -14 25 -29 25 -34 0 -9 53 -69 137 -155 31
-32 47 -42 62 -38 23 6 28 -6 10 -24 -16 -16 29 -72 57 -72 15 -1 23 -9 27
-29 6 -27 48 -84 100 -133 15 -15 27 -30 27 -33 0 -14 42 -46 61 -46 11 0 35
-16 51 -35 17 -19 35 -32 40 -29 4 3 8 0 8 -5 0 -6 6 -11 13 -11 15 0 47 -61
47 -91 0 -14 10 -25 30 -32 17 -6 30 -15 30 -20 0 -5 11 -18 25 -29 22 -17 24
-23 13 -37 -12 -14 -11 -14 4 -3 14 12 19 10 35 -8 10 -12 32 -28 48 -37 17
-8 41 -26 55 -39 61 -57 92 -84 98 -84 4 0 23 -15 42 -33 19 -17 50 -39 70
-48 19 -9 57 -33 84 -54 27 -20 64 -44 82 -51 18 -8 35 -18 39 -23 3 -6 33
-20 66 -32 33 -12 73 -34 90 -50 16 -15 29 -26 29 -24 0 2 21 -2 48 -9 64 -17
166 -20 227 -6 46 10 118 49 158 84 9 9 21 16 26 16 15 0 81 69 81 85 0 8 11
22 25 31 15 10 27 29 31 52 4 21 12 43 18 51 6 8 9 24 8 37 -2 13 1 24 7 24
25 0 10 160 -28 290 -5 19 -20 69 -31 110 -12 41 -24 86 -27 100 -2 14 -9 34
-14 45 -5 11 -11 47 -13 80 -3 33 -9 78 -16 100 -6 22 -13 51 -16 65 -2 14
-12 43 -20 65 -9 22 -20 65 -26 95 -5 30 -14 84 -20 120 -8 43 -12 234 -12
560 0 448 5 606 21 650 3 8 7 110 9 225 4 308 18 468 46 535 8 19 15 70 16
112 1 42 7 89 12 103 6 15 10 40 10 56 0 16 5 29 10 29 6 0 10 22 10 49 0 28
4 52 8 55 4 2 9 24 10 48 1 24 7 54 12 68 8 23 22 197 19 245 0 11 -4 162 -8
335 -7 300 -11 349 -31 395 -5 11 -21 49 -36 85 -14 36 -30 70 -34 75 -5 6
-25 51 -45 100 -20 50 -40 99 -45 110 -5 11 -11 36 -14 55 -3 19 -11 62 -18
95 -15 74 -15 433 1 625 7 74 14 194 16 265 3 72 9 150 14 175 6 25 10 68 9
97 -1 29 4 58 9 65 6 7 11 32 11 55 1 23 5 51 11 61 6 11 13 59 16 109 3 63
11 102 27 134 12 24 22 51 24 59 1 8 11 42 22 75 41 126 71 233 87 310 9 44
20 89 24 100 5 11 6 40 4 65 -2 25 -6 74 -8 110 -3 36 -8 79 -11 95 -5 27 -13
100 -29 295 -3 36 -9 72 -12 80 -3 8 -7 22 -9 30 -2 8 -7 23 -13 35 -22 46
-71 204 -71 228 0 14 -4 29 -10 32 -5 3 -10 15 -10 25 0 10 -6 20 -12 23 -10
3 -10 7 0 20 10 12 11 21 3 35 -10 19 -11 95 -11 651 0 85 -4 159 -9 165 -5 6
-10 31 -12 56 -1 25 -5 50 -9 55 -4 6 -11 28 -17 50 -7 22 -21 72 -32 110 -12
39 -21 80 -21 91 0 11 -5 25 -11 31 -17 17 -18 247 -2 308 7 28 18 57 23 66 4
9 14 35 20 58 6 22 15 41 21 41 6 0 8 9 4 20 -4 13 -1 22 7 25 8 3 15 20 16
37 1 17 10 38 20 47 9 9 18 29 19 45 0 17 8 35 16 41 40 29 129 268 131 352 0
29 6 55 12 57 32 12 44 69 44 202 0 73 4 144 10 158 12 33 -4 82 -41 121 -16
17 -29 37 -29 43 0 7 -9 32 -20 54 -11 23 -20 50 -20 59 0 10 -4 21 -10 24 -5
3 -10 16 -10 27 0 12 -7 29 -15 38 -9 10 -19 35 -22 56 -3 22 -11 45 -16 53
-6 7 -11 32 -10 54 1 23 -3 44 -8 47 -9 6 -13 33 -26 174 -3 38 -12 81 -19 94
-7 14 -11 29 -8 34 3 4 1 8 -4 8 -13 0 -52 79 -52 106 0 13 -18 60 -40 103
-22 43 -40 85 -40 94 0 9 -4 19 -10 22 -5 3 -10 14 -10 24 0 10 -7 32 -16 50
-9 19 -13 39 -8 49 4 9 6 22 4 27 -23 84 -26 112 -14 140 7 17 13 48 14 70 0
39 19 108 33 121 4 4 7 15 7 24 0 9 8 25 19 34 21 19 32 83 33 191 1 83 -15
236 -27 254 -4 7 -9 75 -10 150 -2 75 -6 144 -10 154 -4 9 -3 17 1 17 5 0 10
161 12 357 2 196 5 360 8 364 2 4 -2 9 -10 12 -28 11 -34 192 -24 682 3 169
10 275 18 302 12 39 11 50 -13 125 -27 88 -55 199 -57 233 -1 11 -3 146 -5
300 -2 154 -4 299 -4 323 -1 23 -1 59 -1 80 1 20 -2 59 -6 85 -5 44 -4 49 15
54 14 3 21 13 21 29 0 22 18 73 30 84 18 17 50 92 50 117 0 16 3 33 6 36 4 4
8 28 11 54 2 27 7 57 12 68 4 11 18 54 30 95 12 41 27 89 32 106 5 17 9 38 9
48 0 10 11 40 25 68 14 27 25 54 25 60 0 17 92 108 103 101 6 -3 7 -1 3 5 -8
13 50 82 70 82 8 0 14 3 14 8 0 10 97 84 135 102 17 8 32 18 35 21 3 3 30 14
60 23 30 10 69 24 87 32 17 8 34 14 38 14 12 0 119 91 140 119 11 15 27 35 35
43 8 9 33 41 55 73 22 32 77 96 123 142 45 47 82 89 82 93 0 5 20 30 45 57 25
26 45 52 45 56 0 8 46 70 90 120 55 62 123 122 180 157 33 20 68 44 78 53 10
9 34 20 53 23 19 4 66 24 105 45 39 22 82 39 97 39 14 0 29 5 32 10 3 6 17 10
31 10 13 0 24 5 24 10 0 6 9 10 19 10 11 0 23 5 26 10 3 6 17 10 30 10 13 0
27 4 30 10 3 5 38 19 78 31 40 11 83 32 98 45 27 26 102 58 218 93 40 12 90
31 110 42 19 10 44 19 53 19 10 0 18 4 18 9 0 4 33 11 73 14 39 2 87 13 106
22 28 15 37 16 55 5 16 -10 21 -10 24 0 3 7 13 21 24 32 17 17 29 19 126 14
59 -3 161 -8 226 -11 69 -4 130 -12 145 -20 14 -7 42 -16 61 -19 20 -3 52 -12
72 -20 19 -8 38 -12 42 -9 3 4 6 2 6 -3 0 -5 10 -10 22 -11 11 -1 25 -7 29
-14 7 -11 51 -20 96 -20 12 1 39 -9 60 -21 43 -26 69 -32 78 -18 9 14 25 12
25 -3 0 -7 15 -21 33 -32 48 -28 113 -98 163 -175 24 -38 44 -71 44 -75 0 -3
9 -15 20 -27 11 -12 20 -30 20 -40 0 -10 5 -18 10 -18 6 0 10 -7 10 -15 0 -8
5 -15 10 -15 6 0 10 -7 10 -17 0 -9 17 -46 37 -82 21 -36 38 -73 39 -81 1 -8
11 -35 22 -60 11 -25 26 -65 33 -90 7 -25 16 -49 21 -55 4 -5 8 -24 8 -41 0
-18 5 -36 10 -39 6 -3 10 -39 10 -80 0 -41 5 -77 10 -80 12 -8 14 -462 1 -469
-11 -7 -20 -83 -29 -251 -6 -108 -12 -146 -25 -165 -9 -13 -17 -37 -17 -52 0
-16 -5 -28 -10 -28 -6 0 -9 -3 -8 -7 5 -15 -25 -103 -34 -103 -5 0 -7 -4 -4
-8 2 -4 -2 -23 -11 -42 -8 -19 -24 -55 -35 -80 -32 -70 -49 -102 -85 -148 -18
-24 -33 -52 -33 -62 0 -11 -8 -27 -17 -37 -10 -10 -27 -35 -38 -57 -11 -21
-25 -41 -32 -43 -7 -3 -13 -12 -13 -19 0 -8 -18 -38 -40 -67 -45 -59 -246
-263 -273 -279 -38 -20 -132 -102 -177 -153 -19 -22 -46 -51 -60 -65 -28 -28
-46 -62 -54 -100 -2 -14 -10 -43 -16 -65 -42 -147 -49 -235 -25 -310 9 -30 14
-59 11 -64 -4 -5 -2 -12 4 -16 5 -3 9 -16 9 -28 0 -22 3 -39 14 -67 3 -8 8
-33 10 -55 10 -84 67 -245 86 -245 6 0 11 -9 11 -20 0 -11 4 -20 9 -20 5 0 14
-15 22 -32 7 -18 16 -35 20 -38 13 -10 36 -66 34 -83 -2 -9 1 -15 6 -11 5 3 9
-2 9 -10 0 -9 5 -16 10 -16 6 0 10 -7 10 -15 0 -8 28 -68 62 -132 34 -65 66
-128 72 -140 6 -13 14 -23 19 -23 4 0 7 -9 7 -19 0 -12 10 -21 27 -25 14 -4
35 -18 45 -32 11 -14 43 -36 70 -50 28 -14 53 -34 55 -45 3 -10 9 -16 14 -14
20 13 166 -74 151 -90 -4 -5 1 -5 11 -2 22 8 81 -29 71 -45 -4 -6 1 -6 14 1
18 10 23 6 41 -32 12 -24 21 -49 21 -55 0 -7 5 -12 10 -12 6 0 10 -6 10 -14 0
-8 5 -16 10 -18 6 -2 12 -32 14 -68 3 -36 9 -78 16 -94 6 -16 8 -37 5 -47 -3
-10 -2 -26 3 -36 6 -10 12 -52 15 -93 5 -75 11 -104 41 -213 19 -67 23 -421 6
-432 -5 -3 -10 -15 -10 -25 0 -11 -9 -39 -19 -62 -11 -24 -25 -62 -32 -85 -7
-24 -16 -43 -21 -43 -4 0 -8 -15 -8 -33 0 -18 -4 -37 -9 -42 -5 -6 -11 -28
-14 -50 -6 -52 -16 -94 -26 -114 -5 -9 -11 -31 -14 -48 -4 -18 -16 -54 -28
-80 -21 -47 -35 -81 -58 -136 -6 -16 -9 -32 -6 -37 3 -5 -5 -17 -17 -27 -35
-29 -45 -52 -63 -149 -9 -49 -20 -93 -25 -99 -12 -15 -40 -97 -40 -118 0 -11
-9 -30 -20 -44 -16 -20 -19 -40 -19 -111 0 -48 4 -100 9 -117 5 -16 11 -86 14
-155 8 -163 16 -232 28 -247 5 -7 11 -22 13 -35 2 -13 11 -48 20 -78 9 -30 17
-65 17 -77 0 -13 4 -23 9 -23 5 0 9 -9 9 -20 0 -11 5 -29 10 -40 6 -11 15 -29
20 -40 6 -11 10 -27 10 -35 0 -8 5 -15 10 -15 6 0 10 -7 10 -16 0 -27 32 -113
46 -125 8 -6 14 -24 14 -39 0 -16 4 -30 9 -32 6 -1 11 -14 13 -28 2 -14 9 -35
16 -46 45 -83 82 -272 101 -519 5 -60 12 -121 16 -134 7 -19 5 -22 -6 -16 -12
7 -12 6 -1 -8 10 -12 12 -47 8 -149 -6 -175 -16 -271 -27 -283 -5 -5 -9 -20
-9 -35 0 -14 -8 -45 -17 -70 -9 -25 -19 -63 -23 -85 -5 -22 -15 -67 -25 -100
-10 -37 -14 -74 -10 -95 4 -19 11 -111 15 -205 5 -93 14 -201 21 -240 6 -38
12 -144 14 -235 2 -91 5 -194 6 -229 2 -43 -2 -66 -9 -69 -21 -7 -15 -244 8
-327 11 -38 20 -86 20 -105 0 -19 4 -51 9 -70 25 -96 34 -608 12 -745 -6 -38
-14 -96 -17 -127 -4 -32 -9 -58 -13 -58 -4 0 -8 -16 -9 -35 -2 -20 -7 -47 -12
-61 -6 -14 -10 -173 -10 -370 0 -216 -3 -352 -10 -364 -5 -10 -10 -37 -10 -60
0 -23 -4 -49 -9 -59 -6 -10 -11 -40 -12 -67 -1 -27 -6 -58 -10 -70 -4 -11 -3
-28 3 -38 6 -11 6 -21 -1 -29 -5 -7 -12 -25 -15 -40 -2 -15 -7 -31 -11 -36 -3
-6 -6 -37 -6 -70 -1 -34 -5 -64 -10 -67 -5 -3 -7 -9 -5 -13 3 -4 0 -25 -6 -47
-9 -30 -21 -290 -27 -559 0 -11 2 -137 4 -280 3 -143 7 -388 10 -545 2 -157 8
-316 12 -355 8 -71 0 -393 -12 -518 -5 -46 -4 -72 4 -80 8 -8 11 -122 11 -384
0 -376 4 -423 37 -423 10 0 11 -5 3 -19 -12 -24 -7 -67 9 -64 12 3 15 -10 4
-21 -4 -4 -8 -51 -10 -104 -1 -54 -9 -131 -18 -172 -20 -101 -24 -116 -34
-143 -5 -12 -10 -153 -10 -312 -2 -267 -5 -313 -31 -400 -5 -16 -10 -47 -12
-68 -1 -20 -5 -37 -8 -37 -4 0 -7 -6 -7 -12 -1 -7 -9 -44 -18 -83 -9 -38 -18
-85 -20 -103 -3 -18 -8 -38 -12 -45 -4 -6 -8 -39 -10 -72 -1 -33 -8 -76 -14
-96 -16 -52 1 -360 22 -385 5 -6 11 -32 14 -57 3 -25 8 -55 10 -67 2 -12 5
-67 6 -122 2 -81 5 -101 19 -108 15 -8 25 -65 22 -135 -4 -120 0 -271 9 -287
6 -11 9 -31 6 -45 -2 -13 2 -30 10 -38 11 -12 13 -83 12 -422 -2 -457 -2 -453
-10 -453 -3 0 -7 -28 -8 -62 -1 -34 -6 -67 -10 -73 -5 -5 -11 -32 -14 -60 -3
-27 -9 -51 -15 -53 -5 -1 -7 -14 -4 -27 2 -14 0 -31 -5 -38 -19 -24 -35 -123
-29 -177 3 -30 8 -80 11 -110 11 -121 28 -231 36 -236 5 -3 9 -21 9 -40 0 -19
4 -34 9 -34 5 0 11 -15 14 -32 3 -18 30 -105 61 -193 31 -88 56 -170 56 -182
0 -13 5 -22 11 -20 15 3 44 -49 53 -94 5 -31 29 -70 76 -126 5 -7 10 -15 10
-18 0 -4 16 -25 35 -48 19 -22 35 -46 35 -52 0 -6 16 -28 35 -49 19 -21 35
-44 35 -51 0 -8 20 -33 45 -57 24 -24 45 -49 45 -56 0 -8 10 -28 22 -45 13
-18 23 -35 23 -39 0 -4 9 -14 20 -22 11 -8 17 -18 13 -21 -4 -4 -1 -20 8 -36
8 -16 12 -29 9 -29 -4 0 0 -12 8 -27 29 -54 49 -111 48 -134 -1 -33 0 -50 5
-161 4 -79 2 -102 -10 -120 -9 -12 -16 -29 -16 -38 0 -24 -70 -91 -117 -112
-24 -10 -43 -23 -43 -28 0 -6 -8 -10 -19 -10 -10 0 -36 -14 -57 -31 -22 -17
-49 -35 -61 -40 -24 -9 -92 -96 -93 -117 0 -19 -61 -92 -77 -92 -7 0 -13 -4
-13 -10 0 -5 -9 -10 -20 -10 -11 0 -20 -4 -20 -9 0 -5 -9 -12 -19 -16 -12 -3
-22 -19 -26 -38 -8 -41 -26 -80 -43 -90 -7 -5 -10 -13 -6 -18 7 -12 -14 -97
-28 -115 -7 -10 -11 -138 -8 -266 0 -15 -4 -29 -10 -33 -5 -3 -10 -17 -10 -30
0 -13 -4 -26 -9 -30 -6 -3 -10 -36 -9 -74 0 -63 -11 -120 -33 -163 -5 -10 -9
-29 -9 -42 0 -14 -5 -28 -10 -31 -6 -3 -10 -52 -10 -112 0 -134 -26 -298 -52
-327 -4 -6 -8 -18 -8 -28 0 -10 -5 -18 -12 -18 -6 0 -9 -3 -6 -6 4 -3 0 -21
-8 -39 -8 -19 -14 -50 -14 -69 0 -19 -4 -38 -10 -41 -5 -3 -10 -30 -10 -59 0
-29 -3 -56 -7 -60 -4 -3 -8 -28 -10 -54 -2 -26 -7 -63 -12 -82 -24 -94 -31
-134 -31 -175 0 -25 -4 -45 -9 -45 -5 0 -7 -12 -5 -27 12 -85 24 -144 38 -193
42 -140 45 -162 52 -425 3 -77 8 -149 14 -160 15 -34 23 -197 22 -480 0 -148
-1 -326 -1 -395 0 -69 1 -404 1 -745 1 -341 -2 -659 -6 -706 -6 -61 -5 -88 3
-93 6 -4 11 -36 11 -77 0 -39 4 -78 9 -88 11 -19 14 -82 12 -256 -2 -155 6
-243 23 -280 20 -43 36 -98 36 -123 0 -11 6 -33 12 -48 9 -20 10 -28 2 -31 -8
-3 -9 -16 -4 -41 9 -38 6 -150 -6 -256 -3 -32 -1 -84 5 -115 13 -66 18 -375 6
-410 -4 -13 -8 -42 -9 -64 -2 -23 -8 -43 -14 -45 -14 -4 -17 -382 -4 -382 12
0 32 -65 38 -125 13 -122 15 -371 3 -412 -6 -24 -15 -43 -20 -43 -14 0 -9
-398 5 -455 8 -28 12 -63 11 -78 -2 -15 1 -29 6 -33 5 -3 9 -20 9 -37 0 -34
24 -70 52 -80 11 -4 17 -15 16 -29 -2 -24 24 -86 54 -130 10 -14 18 -32 18
-40 0 -7 14 -24 30 -38 23 -19 30 -33 30 -62 0 -20 4 -39 8 -42 5 -3 9 -25 10
-49 2 -37 20 -91 51 -147 4 -8 16 -16 25 -18 9 -2 40 -19 69 -38 63 -41 96
-43 192 -9 39 14 81 25 95 25 23 0 94 30 128 55 29 21 159 158 161 171 1 2 18
22 39 43 54 58 62 68 62 87 0 18 50 111 84 157 12 15 56 64 98 110 43 45 80
89 83 99 3 9 28 39 55 67 27 28 51 55 52 59 2 4 5 6 8 5 3 -1 7 12 8 29 1 16
9 37 17 45 8 8 15 24 15 35 0 12 8 30 18 41 9 11 11 17 5 13 -8 -4 -13 -1 -13
9 0 17 43 65 58 65 11 0 35 50 28 58 -10 9 16 43 40 52 13 5 24 16 24 25 0 8
4 15 9 15 5 0 11 10 15 22 6 27 54 81 79 91 9 3 17 13 17 21 0 9 15 17 40 21
22 4 43 13 47 20 5 7 17 14 28 16 12 3 21 14 23 27 2 12 9 22 17 22 7 0 15 4
17 8 2 5 17 15 33 23 20 10 29 21 27 33 -2 11 4 20 17 23 10 3 25 18 31 34 7
16 20 29 29 29 21 0 61 76 61 117 0 21 6 36 19 42 10 6 21 21 24 33 4 13 20
29 37 36 16 8 30 18 30 23 0 13 78 89 92 89 6 0 16 8 23 17 10 14 30 17 101
18 110 1 197 18 230 44 15 12 30 19 34 16 4 -3 10 1 13 9 4 9 26 14 71 15 71
1 105 11 141 40 l24 18 -21 17 c-26 23 -19 28 19 14 26 -10 34 -9 48 5 9 9 21
17 26 17 5 0 9 7 9 16 0 8 6 22 14 30 16 16 51 19 41 4 -4 -6 1 -7 12 -3 24 8
72 65 67 78 -3 6 10 10 31 10 23 -1 35 3 35 12 0 7 6 13 13 13 24 0 68 56 74
94 3 22 13 40 22 43 70 22 91 37 101 75 8 27 16 38 30 38 22 0 42 37 61 109 7
28 16 51 20 51 4 0 9 11 11 25 3 14 1 25 -3 25 -5 0 -9 7 -9 16 0 11 6 13 19
9 23 -7 36 10 33 45 -1 19 6 30 28 44 17 9 28 21 26 25 -11 17 75 42 146 42
15 0 30 4 33 9 3 5 13 6 21 3 8 -3 25 -1 37 6 12 6 116 15 230 20 158 7 213
13 225 24 16 14 49 27 82 33 74 14 133 32 150 47 11 9 25 17 31 17 14 0 79 65
79 79 0 6 9 11 20 11 13 0 26 12 37 35 9 19 21 35 26 35 5 0 8 12 7 28 -4 51
0 105 7 99 10 -11 33 13 33 35 0 10 8 33 17 51 9 18 18 43 19 57 2 31 23 87
47 123 9 14 17 35 17 47 0 11 7 20 15 20 9 0 18 8 21 18 22 66 103 180 118
165 3 -4 6 -2 6 4 0 27 183 183 214 183 17 0 55 46 51 61 -4 11 1 18 15 22 11
3 20 12 20 21 0 14 18 21 43 17 4 0 7 3 7 9 0 5 6 10 14 10 14 0 19 22 31 150
4 36 11 67 16 68 5 2 9 24 9 48 0 24 3 44 8 44 10 0 7 70 -5 100 -5 13 -7 39
-3 57 5 22 3 38 -7 52 -10 15 -15 61 -18 158 -6 195 -14 258 -33 280 -9 10
-18 25 -20 33 -1 8 -6 24 -11 35 -5 11 -14 34 -21 50 -20 49 -28 60 -39 58 -5
-2 -20 11 -32 28 -12 17 -32 42 -45 56 -13 14 -26 35 -30 46 -4 11 -10 25 -15
31 -67 82 -89 113 -89 122 0 7 -3 14 -7 16 -14 6 -62 75 -57 81 3 3 -3 10 -13
16 -11 5 -51 41 -90 79 -39 38 -92 79 -117 92 -25 12 -46 26 -46 30 0 5 -11
22 -25 38 -14 17 -30 45 -37 62 -6 18 -25 46 -42 64 -22 22 -32 42 -34 71 -4
57 -32 153 -48 166 -8 6 -14 20 -14 30 0 11 -4 19 -9 19 -6 0 -10 8 -9 18 0
44 -30 105 -58 116 -9 4 -14 17 -13 38 2 19 -9 54 -24 84 -14 28 -23 54 -20
58 4 3 -1 6 -10 6 -21 0 -33 27 -31 67 1 18 -2 35 -7 39 -5 3 -9 45 -9 93 0
65 -4 92 -14 101 -19 15 -48 78 -71 150 -26 82 -43 120 -55 120 -7 0 -9 21 -5
60 4 38 2 60 -5 60 -5 0 -10 6 -10 13 0 19 -119 139 -130 132 -5 -3 -23 1 -40
10 -18 9 -40 13 -51 10 -15 -5 -25 -1 -35 14 -12 16 -26 21 -62 21 -26 0 -78
7 -116 15 -38 8 -86 12 -105 9 -22 -3 -60 2 -98 14 -43 14 -65 16 -72 9 -7 -7
-16 -5 -29 6 -10 9 -23 17 -29 17 -5 0 -24 7 -41 16 -18 8 -36 13 -42 9 -5 -3
-10 -2 -10 4 0 15 -62 42 -82 35 -11 -3 -24 -1 -31 4 -14 12 -68 11 -60 0 2
-5 -12 -8 -32 -8 -37 0 -74 -14 -87 -33 -4 -8 -15 -7 -33 1 -21 10 -31 10 -41
1 -8 -6 -25 -9 -39 -7 -14 3 -25 1 -25 -4 0 -16 -26 -37 -56 -44 -16 -4 -34
-14 -40 -22 -6 -8 -31 -17 -55 -19 -24 -2 -82 -17 -129 -32 -47 -15 -107 -29
-135 -30 -27 -1 -55 -7 -61 -12 -8 -7 -14 -6 -19 1 -3 5 -15 10 -26 10 -11 0
-27 6 -34 13 -8 6 -36 27 -63 46 -47 33 -72 64 -100 126 -7 16 -22 40 -33 51
-11 12 -21 28 -23 35 -1 8 -13 32 -28 54 -14 22 -25 44 -26 49 0 5 -5 12 -10
15 -5 3 -21 30 -36 59 -14 28 -32 52 -40 52 -7 0 -19 7 -26 15 -10 11 -9 18 4
30 9 9 16 20 16 25 0 7 -22 20 -40 24 -29 7 -48 31 -59 74 -7 28 -21 58 -32
68 -10 9 -19 23 -19 31 0 7 -4 13 -8 13 -4 0 -9 15 -10 33 -3 32 -6 51 -18
115 -4 20 -2 38 6 47 9 10 9 15 1 15 -6 0 -11 7 -11 16 0 14 3 14 15 4 12 -10
15 -10 16 1 2 16 6 66 8 91 0 9 17 34 37 55 64 67 105 121 103 135 -3 25 1 39
10 34 11 -7 9 13 -2 31 -5 8 1 15 17 19 25 6 51 53 48 87 -1 9 2 17 6 17 4 0
7 11 7 24 0 13 -3 22 -7 20 -11 -7 -3 53 10 69 7 8 11 21 10 28 -2 8 4 13 14
11 22 -3 57 43 51 68 -3 11 0 20 6 20 6 0 11 -4 11 -10 0 -15 39 -12 56 4 8 8
14 20 14 27 0 7 2 10 5 7 3 -3 22 10 42 28 20 19 41 34 45 34 5 0 22 9 37 21
19 14 48 22 87 25 33 2 68 9 80 15 13 7 33 7 54 2 22 -6 55 -4 95 4 44 9 137
11 331 8 148 -2 299 -4 337 -4 37 0 67 -3 67 -8 0 -5 10 -9 21 -10 36 -3 151
-56 197 -90 24 -18 49 -33 55 -33 7 0 30 -21 52 -46 22 -26 46 -52 53 -58 7
-6 31 -28 53 -48 22 -21 41 -38 43 -38 2 0 41 -36 86 -80 45 -44 88 -80 96
-80 8 0 11 -6 8 -15 -4 -9 0 -15 10 -15 9 0 16 -3 16 -7 0 -10 55 -68 143
-150 44 -42 71 -61 81 -57 11 4 16 0 16 -13 0 -21 59 -83 79 -83 7 0 9 -5 6
-10 -10 -16 18 -70 35 -70 8 0 25 -16 37 -35 33 -50 78 -68 158 -62 53 4 67 2
75 -12 8 -13 11 -14 19 -2 7 10 13 11 30 1 17 -9 26 -9 37 0 15 13 64 5 64
-10 0 -16 81 -70 105 -70 12 0 31 -12 41 -26 20 -28 87 -64 125 -68 14 -1 49
-14 79 -29 30 -14 75 -29 100 -33 25 -4 55 -13 66 -21 12 -8 26 -13 30 -12 20
3 35 -2 30 -10 -3 -4 5 -6 18 -4 13 3 27 0 30 -6 4 -6 14 -11 23 -11 9 0 24
-10 34 -22 11 -11 19 -17 19 -12 0 5 5 2 10 -6 5 -8 7 -24 4 -35 -4 -15 -3
-16 4 -6 8 11 12 9 22 -8 7 -14 17 -20 26 -17 8 3 22 -3 31 -13 10 -12 25 -18
39 -15 13 2 26 -2 31 -10 4 -7 26 -23 48 -34 22 -11 58 -38 80 -60 22 -22 43
-38 48 -35 4 2 7 -1 7 -7 0 -6 5 -8 10 -5 6 4 25 -8 43 -25 56 -55 146 -120
166 -120 11 0 23 -5 27 -11 3 -6 22 -9 41 -7 25 3 37 0 44 -13 5 -10 26 -23
46 -29 21 -7 49 -19 61 -27 14 -8 34 -12 48 -9 17 5 26 1 34 -14 19 -36 144
-86 191 -76 16 3 31 1 34 -4 7 -12 125 -70 141 -70 6 0 17 -7 24 -15 14 -17
95 -21 105 -5 3 5 14 10 23 10 12 0 13 -3 4 -12 -24 -24 -13 -46 33 -61 25 -9
45 -14 45 -11 0 2 9 -5 20 -16 11 -11 27 -20 36 -20 8 0 30 -11 48 -25 18 -14
42 -25 53 -25 11 0 26 -7 33 -16 7 -8 23 -14 34 -13 39 5 85 -12 91 -32 4 -11
12 -18 18 -16 7 2 24 -4 39 -15 18 -12 29 -15 33 -8 5 8 12 7 23 -3 10 -8 43
-29 75 -47 32 -18 61 -39 64 -46 3 -8 11 -14 19 -14 8 0 22 -9 31 -20 10 -11
25 -20 35 -20 10 0 23 -9 30 -20 7 -11 23 -20 35 -20 13 0 23 -6 23 -14 0 -13
33 -23 105 -32 16 -2 34 -9 39 -14 6 -6 25 -10 43 -10 18 0 33 -4 33 -9 0 -5
21 -9 48 -10 26 0 58 -3 72 -7 14 -3 48 -10 75 -16 28 -5 57 -16 67 -24 11
-10 18 -12 23 -5 10 17 21 13 32 -12 6 -12 23 -29 39 -37 16 -8 43 -26 59 -41
19 -16 51 -30 87 -37 31 -6 73 -19 95 -28 21 -9 45 -18 53 -20 8 -2 23 -7 35
-12 69 -32 90 -35 268 -40 103 -2 187 -8 187 -12 0 -5 8 -7 18 -6 9 2 26 -3
37 -10 11 -8 36 -14 57 -14 33 0 37 -3 40 -28 3 -24 6 -27 37 -24 23 3 40 -3
55 -16 11 -12 35 -23 51 -27 83 -18 173 -50 167 -60 -3 -5 1 -4 10 3 11 9 18
10 23 2 3 -5 15 -10 27 -10 11 0 22 -8 25 -20 3 -11 15 -22 27 -25 29 -7 115
-16 148 -16 15 0 30 -4 33 -10 4 -5 10 -7 15 -4 4 3 21 -2 36 -10 18 -9 32
-11 39 -5 14 11 78 6 118 -9 16 -6 32 -9 37 -6 5 3 30 -2 57 -11 40 -15 171
-34 223 -33 146 1 236 -3 244 -11 6 -6 20 -10 33 -10 13 0 31 -4 41 -9 63 -31
89 -41 107 -40 36 1 120 -23 147 -42 45 -33 98 -16 82 26 -11 29 19 13 34 -18
7 -15 16 -27 21 -27 11 0 51 39 51 50 0 6 7 10 15 10 8 0 24 5 35 12 15 10 24
9 44 -2 38 -20 32 -28 -21 -33 l-48 -3 55 -2 c32 -1 61 3 68 10 9 9 18 9 37 0
14 -7 39 -12 56 -12 16 0 51 -11 77 -23 51 -26 177 -64 220 -66 6 -1 11 -7 10
-13 -2 -8 9 -14 27 -14 49 -2 131 -38 166 -72 18 -18 39 -32 46 -32 7 0 13 -3
13 -7 0 -5 18 -17 40 -27 22 -11 40 -23 40 -27 0 -4 11 -10 24 -13 13 -3 51
-26 85 -51 33 -25 67 -45 74 -45 18 0 80 -40 95 -61 7 -11 18 -19 23 -19 6 0
17 -7 26 -15 8 -9 20 -14 26 -12 7 2 20 -5 31 -15 11 -10 28 -18 38 -18 10 0
18 -4 18 -8 0 -10 112 -31 180 -35 35 -1 47 -7 54 -23 11 -26 45 -40 114 -49
33 -4 52 -12 52 -20 0 -9 8 -11 22 -7 17 4 20 2 15 -11 -4 -11 1 -18 16 -23
12 -3 28 -11 35 -17 8 -6 23 -12 34 -14 12 -2 31 -15 42 -28 12 -14 25 -25 29
-25 11 0 73 -56 97 -87 19 -26 57 -46 71 -37 6 3 13 -3 16 -14 3 -11 12 -24
21 -27 10 -4 98 -11 197 -16 242 -12 242 -12 406 -65 79 -26 153 -49 164 -51
10 -2 22 -8 26 -14 3 -6 8 -10 10 -9 5 2 19 -2 84 -23 28 -8 70 -18 95 -22 25
-4 78 -18 119 -31 40 -13 84 -24 97 -24 12 0 26 -4 29 -10 3 -5 22 -10 42 -10
28 0 34 -3 29 -15 -4 -12 -2 -14 11 -6 11 6 30 4 55 -5 24 -8 40 -9 44 -3 3 6
16 4 32 -7 33 -22 110 -22 342 0 25 3 122 8 215 11 94 4 174 11 179 15 5 5 16
5 25 0 9 -5 33 -16 54 -25 20 -9 37 -20 37 -24 0 -16 81 -49 116 -47 28 1 36
-3 40 -21 8 -30 46 -53 88 -53 25 0 38 -6 46 -20 6 -12 21 -20 35 -20 13 0 29
-8 34 -17 8 -14 11 -15 11 -3 1 12 3 12 14 -2 7 -10 16 -15 19 -12 3 3 15 -1
27 -9 12 -8 30 -12 41 -10 24 7 63 -11 100 -44 19 -18 41 -25 90 -28 63 -5
135 -20 174 -36 71 -29 97 -37 158 -49 37 -7 67 -16 67 -20 0 -13 49 -6 55 8
8 22 26 13 19 -12 -5 -21 -3 -23 18 -19 14 3 40 -5 64 -19 21 -13 54 -24 73
-24 20 -1 38 -9 43 -18 5 -9 17 -16 26 -16 9 0 39 -11 66 -25 29 -15 66 -25
91 -25 26 0 51 -7 67 -19 13 -11 35 -19 48 -20 14 0 46 -3 73 -6 34 -5 47 -3
47 6 0 8 6 7 18 -4 9 -8 40 -21 67 -27 31 -8 59 -22 74 -39 13 -15 21 -19 18
-9 -9 25 3 29 26 7 11 -10 30 -19 41 -19 12 -1 84 -3 162 -5 77 -3 155 0 173
5 18 5 42 5 54 1 12 -5 33 -4 46 0 21 8 149 14 207 10 11 0 30 -10 41 -20 17
-16 38 -20 107 -22 47 -2 86 -6 86 -10 0 -7 56 -17 145 -25 60 -6 145 -31 156
-46 15 -23 151 -57 245 -62 275 -15 402 -17 439 -7 22 5 64 12 93 14 29 2 55
7 58 10 3 3 18 2 34 -3 18 -5 32 -4 39 3 8 8 11 8 11 -1 0 -7 8 -12 18 -12 10
0 21 -3 25 -6 3 -3 36 -8 73 -10 37 -3 72 -8 78 -12 12 -7 35 -11 86 -14 30
-3 35 -7 35 -28 1 -36 49 -79 98 -89 56 -10 121 -56 122 -84 0 -16 13 -29 52
-48 28 -15 64 -35 80 -46 15 -11 46 -26 68 -33 22 -7 49 -21 60 -31 11 -10 34
-20 50 -23 60 -11 130 -30 140 -38 5 -4 15 -8 22 -8 7 0 32 -9 56 -19 23 -11
57 -22 75 -26 17 -4 32 -12 32 -18 0 -7 19 -12 48 -13 27 -1 59 -7 73 -15 13
-7 29 -14 34 -15 13 -2 174 -41 250 -60 33 -9 71 -17 85 -19 14 -2 48 -11 75
-20 72 -23 192 -45 252 -45 29 0 74 -7 100 -16 62 -21 171 -73 178 -84 3 -5
28 -21 55 -36 28 -15 50 -31 50 -36 0 -4 6 -8 14 -8 8 0 26 -15 41 -32 28 -33
65 -62 51 -39 -4 6 -2 11 3 11 6 0 11 -7 11 -16 0 -8 16 -22 36 -30 30 -13
112 -16 473 -19 276 -2 458 -8 496 -15 33 -7 96 -14 140 -16 44 -2 82 -9 83
-14 3 -7 8 -7 18 1 8 7 24 8 41 4 16 -4 38 -9 50 -11 13 -1 37 -7 55 -13 18
-5 53 -15 78 -22 25 -7 50 -16 56 -21 6 -4 24 -7 40 -7 102 2 215 -10 285 -31
20 -6 30 -3 43 12 14 16 20 17 32 8 7 -7 24 -10 36 -7 13 4 29 0 38 -8 9 -8
32 -17 51 -20 27 -4 228 -23 274 -26 6 0 78 3 160 7 152 6 195 17 195 49 0 11
5 12 25 5 15 -6 25 -6 25 0 0 5 9 12 20 15 11 3 20 13 20 20 0 8 12 18 27 21
35 9 44 22 38 55 -5 21 2 34 37 67 24 23 48 42 54 42 7 0 9 10 6 25 -2 14 0
25 6 25 10 0 42 54 42 70 0 4 16 34 35 66 42 70 53 107 60 205 3 41 7 85 8 99
1 14 12 31 25 38 30 17 45 55 46 113 1 29 8 54 18 65 9 11 18 33 21 51 3 17 8
37 12 43 4 6 9 57 11 113 3 56 10 119 16 140 8 27 8 41 0 49 -8 8 -7 16 1 29
8 14 9 26 1 47 -8 20 -8 35 -1 47 5 10 6 40 2 74 -5 31 -9 103 -9 161 -1 101
0 106 27 134 15 16 27 34 27 41 0 6 9 21 20 33 12 12 16 22 10 22 -5 0 -10 5
-10 11 0 5 5 7 10 4 13 -8 9 17 -4 26 -5 4 -2 26 6 50 12 37 19 44 41 44 31 1
67 31 67 55 0 10 7 23 14 30 24 19 49 97 43 130 -6 28 -4 30 23 30 29 0 57 30
45 49 -6 11 23 43 34 37 4 -3 7 8 6 24 -1 17 1 30 5 30 3 0 12 35 20 78 7 42
20 82 28 88 8 5 14 29 15 55 1 24 6 47 11 50 5 4 10 24 11 46 1 21 8 50 16 64
7 13 12 30 10 37 -1 8 2 19 7 25 5 7 9 101 10 210 1 110 6 206 12 217 13 25
13 86 -2 113 -6 12 -12 62 -12 112 -1 49 -5 95 -9 102 -11 18 -9 552 2 590 5
18 6 47 3 65 -4 18 -6 89 -5 158 5 252 6 658 2 755 -3 92 2 161 18 225 3 14 7
31 9 39 1 8 6 17 11 20 10 8 44 126 74 261 20 89 30 167 35 285 3 65 10 127
14 136 12 22 11 502 -1 509 -5 4 -11 65 -13 138 -5 138 -8 152 -32 152 -10 0
-13 7 -9 23 7 26 -51 188 -72 200 -7 4 -13 15 -13 22 0 8 -4 15 -9 15 -6 0 -7
15 -4 34 4 27 1 38 -16 52 -11 10 -21 22 -21 27 0 4 -12 19 -27 32 -21 18 -25
27 -17 35 7 7 9 24 4 45 -8 38 -47 105 -60 105 -5 0 -12 15 -15 33 -4 17 -16
44 -26 59 -11 14 -19 33 -19 42 0 9 -7 19 -15 22 -8 4 -12 10 -10 15 3 4 -3
26 -15 48 -11 22 -20 50 -20 61 0 12 -11 32 -25 45 -13 14 -21 25 -18 25 4 0
2 5 -5 12 -7 7 -12 30 -12 52 0 23 -7 50 -15 60 -8 11 -15 32 -15 47 0 16 -7
32 -16 37 -8 5 -18 27 -21 50 -3 23 -8 40 -12 38 -9 -6 -4 201 5 216 8 11 13
50 14 108 1 88 -11 334 -19 365 -8 33 -13 133 -10 195 7 144 12 190 20 190 6
0 9 31 8 75 -1 41 -5 72 -10 70 -11 -8 -22 13 -26 54 -2 20 -8 40 -14 46 -5 5
-9 17 -9 26 0 9 -6 22 -14 29 -8 6 -12 18 -9 26 3 8 -2 26 -12 40 -10 16 -15
37 -12 53 5 24 -3 62 -24 116 -4 11 -10 29 -13 40 -10 41 -33 96 -44 107 -7 7
-12 30 -12 53 0 23 -4 45 -8 50 -5 6 -14 30 -21 55 -7 25 -18 51 -24 59 -18
21 -23 63 -12 99 5 13 3 22 -3 22 -15 0 -16 559 -1 597 5 15 10 59 11 97 0 39
5 76 10 83 9 11 5 143 -5 160 -6 10 -8 76 -14 453 -12 751 -13 863 -5 874 11
13 7 372 -5 461 -6 49 -3 202 10 428 1 15 7 27 13 27 22 0 64 49 64 75 0 17 5
25 18 25 20 0 62 35 62 51 0 5 13 15 28 20 20 7 36 25 52 57 13 26 34 60 47
75 12 16 23 36 23 46 0 9 9 34 20 56 21 42 27 100 10 110 -5 3 -10 16 -10 29
0 12 -4 26 -9 31 -10 10 -17 36 -31 115 -4 25 -13 62 -19 83 -7 20 -9 42 -6
48 4 5 1 16 -5 24 -8 10 -13 61 -14 144 -2 119 -4 134 -29 181 -15 29 -27 61
-27 72 0 10 -5 28 -11 39 -8 16 -22 142 -19 184 0 6 2 80 4 165 3 133 6 162
25 199 26 56 39 131 41 250 0 52 5 103 11 112 6 11 7 118 3 276 -3 142 -5 276
-4 298 5 97 -12 173 -63 285 -12 25 -106 155 -127 175 -31 29 -70 80 -80 105
-6 15 -22 32 -36 38 -25 12 -32 36 -14 47 12 8 13 71 1 93 -5 10 -12 53 -15
97 -16 213 -19 231 -36 252 -10 12 -21 19 -25 15 -4 -4 -6 0 -4 8 5 25 -12
110 -22 110 -5 0 -9 8 -9 18 0 10 -9 35 -20 57 -11 22 -20 56 -20 77 0 20 -4
39 -9 42 -5 4 -8 14 -7 23 2 9 -3 41 -11 72 -16 69 -19 526 -3 536 6 3 10 21
10 39 0 19 6 49 14 67 8 20 10 42 6 54 -4 11 -3 29 3 40 6 11 13 44 14 74 2
29 8 61 13 71 6 10 10 46 10 79 0 33 7 86 16 118 10 32 19 88 21 126 3 64 1
72 -41 151 -25 46 -42 86 -39 90 3 3 1 11 -4 18 -5 7 -16 40 -23 73 -7 33 -17
65 -21 70 -4 6 -10 22 -13 35 -3 14 -8 36 -11 50 -11 50 -18 139 -22 293 -6
213 6 261 94 387 10 14 22 27 26 29 5 2 13 15 19 30 11 26 12 30 23 91 4 19
13 45 21 57 7 12 23 46 34 75 18 47 20 76 20 275 0 209 8 298 32 350 6 12 12
43 13 70 2 26 6 70 9 97 4 33 3 52 -5 57 -8 4 -11 38 -10 95 3 128 3 127 -7
133 -4 3 -6 36 -2 74 3 37 2 74 -2 81 -9 16 -14 334 -5 342 3 4 0 18 -7 33 -7
14 -14 48 -15 75 -1 27 -6 57 -12 67 -5 10 -9 32 -9 49 0 17 -11 57 -25 90
-14 33 -27 77 -29 99 -2 22 -13 53 -25 69 -11 17 -21 42 -21 56 0 14 -3 26 -8
26 -4 0 -13 15 -20 33 -28 68 -35 83 -50 112 -8 17 -20 35 -26 40 -6 6 -13 28
-15 50 -1 21 -8 44 -15 50 -20 16 -66 83 -66 94 0 5 -15 22 -34 36 -20 15 -38
39 -41 56 -4 16 -11 31 -16 34 -5 4 -9 15 -9 25 0 10 -12 29 -27 42 -16 13
-29 31 -31 39 -3 16 -24 62 -33 69 -7 7 -43 95 -58 145 -16 53 -10 259 11 345
10 40 27 79 45 100 48 58 126 131 167 157 21 14 48 35 60 47 38 39 120 101
168 125 26 14 45 28 42 33 -3 4 7 10 21 14 14 3 34 18 45 32 39 49 182 112
262 116 14 0 24 4 22 7 -6 10 35 19 87 19 25 0 49 3 52 6 4 4 23 8 42 10 36 3
137 40 205 74 20 10 63 24 98 30 34 7 59 16 57 21 -3 4 4 13 15 19 11 6 18 15
15 19 -6 11 24 74 41 84 7 4 15 21 19 37 4 16 10 32 15 35 4 3 25 38 45 77 21
40 42 75 46 76 5 2 9 9 9 15 0 10 49 117 98 212 28 55 212 255 235 255 6 0 8
3 4 6 -8 8 67 71 95 80 32 10 169 118 208 164 19 23 44 51 55 61 67 67 107 99
116 93 5 -3 9 -2 8 3 -4 23 3 33 23 33 12 0 19 3 16 6 -9 8 65 81 90 89 12 3
22 10 22 15 0 14 32 21 46 9 11 -9 13 -9 9 2 -6 18 47 49 84 49 14 0 34 9 44
20 9 11 24 20 32 20 23 0 144 63 145 75 1 15 33 50 52 58 10 3 18 12 18 19 0
7 18 21 40 31 22 9 40 23 40 30 0 7 18 20 40 30 22 9 57 33 79 52 21 19 46 35
55 35 9 0 16 3 16 8 0 4 36 43 80 87 44 44 80 86 80 92 0 7 11 20 25 29 14 9
25 22 25 29 0 6 9 20 20 30 13 12 20 31 20 57 0 21 5 38 10 38 6 0 10 13 10
28 0 18 11 38 30 57 25 24 30 37 30 76 0 26 4 51 10 54 7 4 10 357 10 1025 0
668 -3 1021 -10 1025 -6 3 -10 28 -10 54 0 33 -6 56 -20 74 -11 14 -20 35 -20
46 0 12 -4 29 -9 39 -19 37 -31 90 -31 135 0 25 -5 49 -10 52 -5 3 -10 17 -10
30 0 13 -4 27 -10 30 -6 3 -10 19 -10 36 0 28 -3 37 -28 86 -7 13 -12 36 -12
52 0 17 -4 33 -10 36 -5 3 -10 18 -10 33 0 15 -9 38 -20 52 -11 14 -20 40 -20
58 0 18 -4 40 -9 50 -5 9 -14 30 -20 45 -6 16 -20 31 -31 34 -11 3 -20 12 -20
20 0 8 -14 28 -30 45 -17 16 -30 32 -30 34 0 3 -11 15 -25 28 -13 12 -45 49
-70 82 -25 32 -55 62 -66 66 -10 4 -19 13 -19 21 0 14 -64 75 -164 157 -30 25
-60 57 -67 71 -7 14 -26 31 -43 38 -87 35 -107 45 -122 62 -10 11 -21 19 -27
19 -5 0 -21 8 -35 18 -15 10 -43 25 -62 32 -19 7 -47 22 -62 32 -24 17 -46 19
-188 17 -88 0 -160 -4 -160 -7 0 -11 -52 -32 -77 -32 -13 0 -23 -3 -23 -8 0
-9 -92 -52 -111 -52 -8 0 -29 -14 -48 -30 -18 -17 -38 -30 -43 -30 -5 0 -78
-69 -161 -153 -152 -152 -266 -257 -282 -257 -4 0 -22 -10 -39 -23 -17 -13
-62 -40 -101 -61 -38 -21 -83 -49 -98 -62 -16 -13 -34 -24 -41 -24 -7 0 -21
-8 -32 -18 -10 -10 -35 -24 -54 -31 -19 -8 -44 -23 -55 -33 -53 -50 -90 -78
-124 -93 -67 -30 -83 -39 -107 -62 -14 -13 -33 -23 -44 -23 -10 0 -25 -7 -34
-15 -8 -8 -22 -15 -30 -15 -9 0 -18 -11 -22 -24 -5 -21 -12 -24 -80 -28 -41
-3 -80 -10 -87 -17 -6 -6 -20 -11 -32 -11 -12 0 -26 -5 -31 -10 -17 -17 -125
-41 -158 -35 -17 3 -71 10 -121 15 -109 12 -163 21 -195 33 -8 3 -36 11 -62
17 -26 7 -53 19 -59 26 -6 8 -25 14 -41 14 -27 0 -30 3 -24 24 3 14 2 28 -4
31 -5 3 -10 0 -11 -7 0 -7 -4 -3 -9 10 -10 23 -40 31 -40 10 0 -21 -18 6 -22
32 -2 16 -10 26 -23 28 -59 9 -66 13 -60 32 4 11 2 20 -4 20 -5 0 -29 15 -54
34 -24 18 -57 36 -73 39 -74 15 -92 19 -129 29 -22 7 -46 16 -54 22 -8 6 -26
11 -40 11 -15 0 -25 5 -24 12 2 9 -4 10 -20 4 -13 -5 -29 -6 -36 -2 -7 4 -42
9 -79 10 -37 1 -98 9 -137 16 -38 8 -101 15 -140 15 -38 0 -131 7 -205 16
-146 17 -543 32 -870 33 -195 0 -206 -1 -221 -20 -13 -18 -29 -21 -114 -25
-100 -4 -179 -22 -215 -47 -11 -8 -17 -17 -13 -20 6 -7 -42 -12 -62 -7 -9 2
-175 9 -215 9 -8 0 -26 0 -40 0 -14 0 -61 -13 -106 -30 -44 -16 -87 -29 -95
-29 -8 0 -37 -11 -65 -24 -93 -45 -126 -59 -140 -59 -8 0 -14 -4 -14 -8 0 -4
-14 -11 -32 -14 -44 -10 -244 -125 -268 -154 -10 -12 -128 -99 -151 -111 -13
-7 -26 -16 -29 -19 -3 -3 -18 -13 -33 -21 -16 -8 -39 -25 -53 -38 -13 -14 -24
-21 -24 -16 0 5 -7 -2 -16 -14 -8 -12 -22 -22 -30 -22 -8 0 -14 -4 -14 -10 0
-5 -6 -10 -14 -10 -8 0 -21 -6 -28 -12 -7 -7 -26 -20 -43 -28 -16 -8 -38 -22
-47 -30 -9 -8 -43 -28 -75 -45 -32 -16 -60 -33 -63 -37 -10 -13 -162 -88 -180
-88 -9 0 -28 -8 -41 -18 -13 -10 -49 -31 -79 -46 -94 -47 -126 -69 -209 -146
-92 -84 -106 -94 -127 -86 -8 3 -14 0 -14 -8 0 -7 -12 -19 -27 -26 -16 -8 -38
-27 -51 -42 -13 -15 -32 -28 -42 -28 -10 0 -22 -4 -25 -10 -3 -5 -20 -10 -36
-10 -17 0 -38 -4 -48 -9 -10 -6 -59 -12 -109 -14 -70 -3 -92 -1 -96 10 -3 7
-12 13 -20 13 -10 0 -17 15 -22 45 -3 26 -12 45 -19 45 -7 0 -18 7 -25 15 -7
8 -30 20 -52 27 -24 7 -45 22 -56 40 -9 15 -23 30 -32 33 -9 3 -41 29 -71 58
-30 28 -65 57 -79 63 -14 7 -50 24 -81 38 -31 14 -62 26 -68 26 -7 0 -38 17
-69 37 -31 21 -65 38 -76 39 -12 1 -28 4 -36 7 -8 3 -28 8 -45 11 -49 10 -52
11 -66 23 -8 6 -39 19 -69 29 -30 9 -64 23 -76 31 -19 12 -240 18 -359 9 -22
-2 -48 1 -57 5 -10 6 -19 5 -23 -1 -4 -6 -11 -7 -17 -4 -19 12 -235 16 -242 5
-12 -19 -34 -12 -40 13 -8 33 -71 69 -107 61 -25 -6 -29 -4 -29 17 0 27 -13
50 -26 47 -10 -2 -40 7 -68 23 -12 6 -22 6 -29 -1 -6 -6 -23 -11 -37 -11 -24
0 -26 3 -22 29 3 26 -2 33 -39 57 -24 16 -47 27 -51 26 -4 -1 -17 11 -30 27
-13 15 -35 31 -49 34 -14 4 -31 18 -37 32 -18 38 -49 45 -207 45 -98 0 -163 5
-205 16 -42 11 -80 14 -119 9 -45 -5 -68 -2 -111 14 -30 12 -67 21 -81 21 -15
0 -45 7 -69 15 -24 9 -74 14 -118 14 -69 -1 -123 6 -144 18 -12 6 -563 4 -584
-2 -47 -15 -107 -50 -234 -134 -39 -26 -118 -61 -138 -61 -10 0 -22 -4 -27 -8
-6 -5 -44 -21 -84 -36 -66 -24 -90 -27 -198 -27 -73 -1 -125 -5 -129 -11 -4
-7 -9 -7 -13 1 -5 7 -63 11 -166 11 -155 1 -173 0 -205 -13 -27 -10 -113 -20
-210 -24 -52 -2 -129 -7 -170 -9 -146 -10 -691 5 -721 19 -9 5 -48 -1 -90 -13
-201 -56 -363 -65 -514 -27 -11 3 -26 6 -33 6 -7 1 -10 6 -7 11 4 6 3 10 -2 9
-18 -3 -32 2 -48 18 -16 16 -39 20 -150 26 -27 1 -55 5 -60 9 -6 3 -30 9 -55
13 -24 4 -55 12 -70 19 -36 19 -130 40 -162 37 -14 -1 -40 5 -58 14 -17 9 -58
18 -91 20 -177 11 -315 40 -416 87 -26 13 -58 19 -85 17 -24 -1 -64 1 -89 5
-37 6 -55 4 -92 -13 -25 -12 -50 -21 -55 -21 -10 0 -107 -37 -134 -51 -10 -5
-26 -9 -36 -9 -11 0 -46 -13 -78 -30 -32 -16 -73 -30 -91 -30 -17 0 -34 -4
-38 -9 -3 -5 -18 -12 -35 -16 -16 -3 -47 -15 -69 -26 -22 -10 -44 -19 -49 -19
-4 0 -26 -8 -48 -19 -28 -13 -70 -20 -156 -23 -100 -5 -125 -9 -171 -32 -30
-14 -61 -26 -69 -26 -8 0 -43 -14 -77 -31 -34 -17 -67 -32 -74 -33 -26 -6 -73
-18 -97 -26 -14 -4 -44 -13 -68 -19 -30 -9 -46 -19 -52 -37 -9 -24 -10 -24
-152 -23 -79 0 -164 4 -190 8 -26 4 -52 4 -59 1 -6 -4 -36 5 -66 21 -30 16
-59 29 -64 29 -5 0 -44 28 -87 63 -92 74 -138 107 -150 107 -5 0 -15 6 -21 14
-7 8 -24 13 -39 11 -15 -2 -32 1 -39 7 -21 17 -222 13 -285 -6 -32 -9 -59 -16
-61 -14 -1 2 -14 -4 -27 -13 -14 -9 -52 -19 -85 -22 -33 -4 -73 -8 -89 -11
-16 -2 -43 0 -59 5 -20 6 -35 5 -44 -3 -10 -8 -20 -8 -39 1 -20 9 -31 8 -52
-3 -17 -9 -49 -13 -85 -11 -31 2 -57 -1 -57 -6 0 -5 -30 -9 -66 -9 -36 0 -73
-4 -83 -10 -10 -5 -60 -12 -112 -15 -142 -8 -212 -16 -233 -27 -11 -6 -42 -10
-70 -9 -28 0 -87 -8 -131 -18 -121 -29 -205 -41 -285 -41 -66 0 -178 -21 -225
-42 -11 -4 -40 -10 -65 -12 -25 -2 -58 -7 -75 -11 -40 -9 -187 -56 -200 -64
-5 -3 -19 -7 -29 -8 -11 -2 -25 -8 -33 -14 -7 -6 -24 -9 -38 -7 -14 3 -29 0
-35 -7 -6 -8 -42 -13 -95 -14 -46 -1 -95 -5 -107 -8 -13 -4 -59 -8 -103 -10
-44 -2 -89 -8 -100 -14 -19 -9 -286 -8 -473 3 -40 2 -75 0 -78 -4 -9 -14 -59
-8 -102 12 -26 13 -61 20 -96 20 -30 0 -57 4 -60 9 -3 5 -20 11 -38 14 -18 3
-96 21 -173 42 -77 20 -144 38 -150 39 -25 6 -91 43 -114 64 -14 13 -40 30
-58 37 -18 8 -33 21 -33 29 0 10 -9 16 -24 16 -14 0 -28 5 -31 10 -3 6 -25 19
-49 30 -23 10 -49 26 -56 35 -7 8 -18 15 -26 15 -7 0 -18 9 -24 20 -6 11 -16
20 -22 20 -23 0 -166 168 -172 203 -1 7 -9 26 -18 42 -24 48 -27 71 -29 245
-2 117 1 165 9 168 7 2 12 15 12 28 0 29 36 104 50 104 6 0 10 7 10 15 0 7 6
18 13 22 14 9 39 61 56 118 14 45 17 54 56 145 15 36 33 79 39 95 7 17 22 50
33 75 12 25 30 66 42 91 11 25 29 54 40 66 16 17 47 69 54 90 1 4 11 17 22 29
12 12 27 35 35 51 13 25 32 55 78 128 21 33 52 106 52 121 0 25 45 89 98 137
12 11 22 26 22 33 0 6 25 34 55 60 30 27 55 54 55 61 0 7 11 34 25 60 35 70
54 117 61 155 4 18 10 38 14 43 7 9 13 52 26 190 4 33 10 64 15 70 5 5 9 20 9
33 0 29 64 168 83 179 16 9 25 37 38 113 23 133 24 130 -23 201 -65 98 -175
201 -236 220 -20 6 -45 15 -54 20 -10 5 -25 9 -33 9 -8 0 -15 5 -15 10 0 6 -3
9 -7 9 -25 -4 -45 3 -40 14 3 8 -7 12 -32 14 -68 2 -145 14 -156 23 -13 11
-56 9 -49 -2 3 -4 -12 -8 -33 -8 -22 0 -43 -4 -49 -10 -5 -5 -77 -12 -159 -15
-142 -6 -201 -2 -390 26 -38 6 -99 11 -135 12 -36 1 -71 6 -78 10 -7 5 -53 11
-102 14 -49 3 -87 9 -85 14 3 4 -19 10 -47 14 -50 6 -154 30 -188 43 -8 3 -17
6 -20 6 -39 7 -130 44 -130 53 0 24 -92 55 -177 61 -46 2 -83 7 -83 11 0 7 -4
7 -190 16 -109 5 -144 3 -180 -9 -25 -9 -61 -16 -80 -17 -45 -1 -162 -22 -176
-31 -20 -13 -145 -27 -264 -28 -129 -2 -136 -1 -173 23 -15 10 -27 15 -27 12
0 -3 -10 3 -22 15 -24 22 -23 22 -58 25 -14 1 -34 6 -45 10 -11 4 -35 14 -54
21 -18 8 -48 14 -66 14 -17 0 -35 3 -39 8 -4 4 -15 7 -24 8 -37 1 -112 17
-112 23 0 4 -22 6 -50 5 -27 -1 -50 2 -50 7 0 5 -8 9 -18 9 -10 0 -23 5 -29
11 -5 5 -27 12 -48 15 -20 2 -45 9 -55 14 -10 6 -27 10 -38 10 -11 0 -25 7
-32 15 -7 8 -28 17 -49 21 -20 4 -40 10 -46 14 -29 22 -136 31 -344 31 -134
-1 -229 3 -236 9 -7 6 -45 11 -86 13 -57 1 -78 -2 -90 -14 -15 -15 -155 -37
-184 -30 -5 1 -27 -2 -50 -8 -22 -6 -54 -13 -72 -14 -17 -2 -42 -10 -55 -19
-23 -15 -56 -25 -116 -35 -18 -3 -35 -9 -38 -14 -3 -5 -16 -9 -29 -9 -13 0
-43 -8 -67 -18 -24 -10 -78 -25 -120 -32 -43 -8 -75 -16 -72 -19 6 -7 -106
-57 -169 -76 -27 -8 -55 -19 -61 -23 -6 -5 -38 -17 -71 -26 -33 -10 -75 -24
-93 -32 -18 -8 -46 -14 -62 -14 -16 0 -31 -4 -34 -9 -8 -12 -273 -14 -281 -1
-3 5 -27 10 -53 10 -79 1 -216 54 -266 103 -38 37 -59 51 -102 71 -17 7 -49
25 -72 40 -23 14 -46 26 -51 26 -5 0 -26 8 -47 17 -22 9 -46 18 -56 19 -15 1
-125 36 -173 54 -90 35 -230 56 -300 45 -82 -13 -348 -15 -363 -3 -16 13 -102
12 -116 -2 -6 -6 -41 -10 -79 -10 -64 0 -68 1 -62 20 7 21 6 22 -35 24 -14 0
-29 6 -35 13 -6 7 -63 13 -155 16 -131 4 -182 1 -290 -18 -19 -3 -100 -8 -180
-11 -80 -3 -161 -9 -180 -13 -19 -4 -181 -4 -360 0 -290 7 -333 10 -395 29
-38 12 -89 27 -113 34 -24 6 -40 14 -37 18 4 4 -3 4 -14 1 -12 -3 -40 4 -64
15 -63 32 -308 116 -380 131 -21 5 -48 18 -60 29 -12 11 -37 23 -54 27 -18 3
-33 10 -33 13 0 4 -16 8 -35 9 -51 2 -126 28 -232 80 -51 25 -99 46 -105 47
-7 1 -35 12 -63 25 -55 25 -162 36 -208 21z m17459 -7851 c3 -5 13 -9 23 -9
10 0 30 -11 45 -25 39 -37 60 -45 109 -45 33 0 54 -7 85 -30 23 -16 45 -30 50
-30 17 0 111 -68 104 -75 -4 -5 -1 -5 6 -1 7 5 21 2 30 -6 9 -8 31 -20 47 -28
17 -8 41 -21 54 -29 28 -18 53 -23 61 -12 3 4 47 13 98 19 52 6 99 15 105 20
13 10 77 27 90 24 4 -1 7 3 7 10 0 6 3 9 6 5 4 -3 23 0 43 8 20 8 59 14 86 14
28 0 59 0 70 1 70 5 127 -13 169 -51 11 -10 36 -22 55 -25 20 -3 46 -12 58
-20 12 -8 31 -14 41 -14 10 0 27 -6 38 -14 13 -10 23 -11 32 -4 7 6 15 8 18 5
3 -3 17 -2 30 3 13 5 24 6 24 2 0 -21 75 -31 225 -31 88 0 171 -4 185 -9 14
-5 63 -8 110 -6 113 4 460 4 585 0 55 -2 105 -1 110 3 6 4 39 8 75 10 36 2 69
6 75 9 15 9 97 24 143 26 26 0 42 6 42 14 0 6 9 12 19 12 11 0 23 5 26 10 3 6
23 10 44 10 38 0 87 12 129 33 12 5 48 11 80 11 31 1 60 6 65 11 4 6 11 4 17
-5 8 -13 13 -13 30 -2 13 8 26 10 33 4 7 -5 44 -9 82 -10 48 -1 83 -8 110 -22
21 -11 48 -20 58 -20 10 0 28 -5 40 -12 12 -7 31 -13 42 -15 25 -4 137 -30
185 -43 20 -5 117 -10 215 -10 155 0 228 2 445 12 19 0 46 -2 60 -6 30 -8 484
-9 520 -1 14 4 51 9 83 12 32 3 60 10 63 14 3 5 15 9 28 9 12 0 26 4 31 8 6 5
54 22 108 38 66 19 102 35 109 48 7 14 12 15 18 6 6 -9 12 -9 29 -1 14 8 49
10 99 6 85 -7 136 -18 199 -46 24 -11 52 -19 63 -19 26 0 110 -23 110 -30 0
-3 57 -7 128 -9 70 -2 130 -8 133 -13 11 -17 410 7 421 26 6 8 8 7 8 -2 0 -10
5 -10 20 -2 13 7 26 7 38 1 10 -5 24 -6 30 -2 7 4 47 6 90 5 51 -2 84 2 98 11
18 11 32 10 94 -6 61 -17 78 -18 109 -8 20 7 39 16 42 21 4 6 14 6 28 -1 13
-7 49 -10 94 -7 39 3 133 8 207 12 74 3 149 12 167 19 17 7 34 10 38 7 4 -4
11 1 17 11 7 13 17 17 34 13 14 -4 24 -2 24 4 0 6 4 9 9 5 5 -3 12 -1 16 4 3
5 13 10 23 10 36 2 149 19 187 30 27 6 102 8 220 3 99 -4 300 -5 447 -2 147 3
282 2 300 -2 18 -4 84 -14 146 -22 62 -9 122 -20 133 -27 12 -6 32 -8 45 -5
17 5 26 2 30 -9 4 -10 17 -14 37 -13 18 2 32 -3 35 -10 2 -7 15 -17 28 -22 13
-5 24 -13 23 -17 -3 -21 2 -33 16 -33 22 0 211 -183 221 -214 6 -19 7 -19 20
-1 11 14 14 15 14 4 0 -8 -6 -21 -12 -28 -10 -11 -10 -13 0 -7 7 4 12 1 12 -7
0 -8 9 -26 20 -40 11 -14 20 -32 20 -41 0 -9 5 -16 10 -16 6 0 10 -10 10 -22
0 -22 18 -81 31 -103 3 -5 11 -32 18 -60 7 -27 16 -66 22 -86 28 -108 27 -475
-1 -503 -6 -6 -10 -19 -10 -30 0 -12 -22 -66 -49 -121 -51 -105 -71 -159 -71
-191 0 -10 -9 -43 -20 -72 -11 -29 -20 -59 -20 -68 0 -9 -22 -41 -49 -72 -26
-31 -57 -68 -67 -81 -11 -13 -27 -32 -36 -43 -10 -10 -18 -26 -18 -37 0 -10
-9 -30 -20 -44 -12 -15 -21 -29 -20 -32 1 -19 -1 -25 -10 -25 -14 0 -59 -51
-60 -67 0 -7 -6 -13 -13 -13 -6 0 -27 -15 -44 -32 -47 -48 -66 -63 -104 -84
-18 -11 -57 -38 -87 -61 -29 -24 -62 -43 -72 -43 -11 0 -20 -4 -20 -10 0 -5
-7 -10 -15 -10 -8 0 -15 -3 -15 -8 0 -4 -15 -13 -32 -20 -18 -7 -41 -18 -50
-23 -10 -5 -24 -9 -33 -9 -8 0 -44 -18 -80 -40 -36 -22 -67 -40 -70 -40 -2 0
-30 -12 -61 -26 -31 -14 -62 -23 -69 -20 -8 3 -19 -1 -25 -9 -6 -7 -23 -13
-38 -13 -15 0 -52 -7 -82 -15 -63 -18 -259 -43 -405 -52 -55 -3 -131 -13 -170
-21 -38 -8 -90 -17 -115 -20 -25 -3 -61 -9 -80 -14 -19 -4 -98 -9 -174 -9 -77
-1 -147 -6 -156 -11 -8 -5 -60 -9 -114 -9 -56 0 -102 -4 -105 -10 -4 -6 -86
-11 -216 -11 -116 -1 -223 -5 -240 -10 -81 -23 -176 -33 -340 -36 -99 -2 -182
-4 -185 -5 -3 -1 -9 -1 -14 0 -33 6 -106 6 -108 0 -2 -4 -24 -4 -50 0 -25 4
-53 4 -61 0 -22 -13 -281 -13 -285 0 -2 6 -12 11 -22 11 -10 0 -22 5 -25 10
-3 6 -17 10 -30 10 -13 0 -27 5 -30 10 -3 6 -23 10 -44 10 -36 0 -79 10 -126
30 -11 5 -36 11 -55 14 -19 3 -71 13 -115 22 -285 57 -462 66 -605 30 -36 -9
-103 -21 -148 -26 -46 -5 -89 -13 -95 -17 -7 -4 -34 -11 -62 -15 -27 -3 -70
-12 -95 -18 -25 -6 -64 -13 -88 -17 -23 -3 -45 -10 -48 -14 -3 -5 -20 -9 -39
-9 -19 0 -37 -4 -40 -10 -3 -5 -17 -10 -30 -10 -13 0 -27 -4 -30 -10 -3 -5
-19 -10 -34 -10 -15 0 -31 -3 -35 -7 -9 -9 -148 -33 -188 -33 -15 0 -29 -4
-33 -10 -3 -5 -31 -10 -61 -10 -31 0 -63 -4 -72 -9 -9 -5 -41 -12 -71 -15 -29
-4 -58 -9 -64 -13 -5 -3 -28 -7 -51 -9 -22 -2 -70 -11 -106 -19 -36 -8 -83
-15 -105 -15 -22 0 -118 -9 -214 -20 -96 -11 -189 -20 -205 -20 -17 1 -74 -1
-126 -4 -494 -30 -510 -30 -565 -12 -39 14 -68 16 -130 11 -126 -10 -720 16
-800 35 -22 6 -91 14 -153 19 -62 5 -119 15 -127 21 -8 7 -15 10 -15 8 0 -4
-39 1 -130 18 -14 2 -52 7 -85 10 -33 4 -67 10 -76 15 -9 4 -38 11 -65 15 -27
3 -53 9 -59 12 -9 5 -55 16 -133 29 -18 3 -35 9 -38 14 -3 5 -13 9 -23 9 -10
0 -30 11 -44 24 -14 13 -28 22 -31 19 -6 -7 -89 39 -99 55 -5 7 -12 10 -18 7
-5 -4 -9 -2 -9 3 0 5 -42 43 -92 83 -51 41 -122 102 -157 137 -35 34 -67 62
-71 62 -13 0 -40 37 -33 45 5 4 3 5 -3 2 -6 -3 -30 15 -54 41 -24 26 -94 94
-154 151 -61 58 -114 114 -119 126 -4 11 -20 28 -35 37 -40 24 -242 228 -242
245 0 2 -11 19 -25 37 -25 33 -91 160 -97 186 -2 8 -9 19 -16 25 -7 6 -15 22
-17 37 -7 36 -41 114 -53 122 -6 4 -16 32 -22 64 -6 31 -15 65 -20 74 -6 10
-10 29 -10 42 0 14 -4 28 -10 31 -5 3 -10 20 -10 36 0 17 -5 40 -12 52 -14 27
-13 456 2 471 6 6 10 45 10 87 0 43 5 81 10 84 6 3 10 22 10 42 0 46 33 141
72 206 16 28 30 59 31 69 1 10 6 18 12 18 6 0 19 16 29 35 10 19 23 32 27 29
5 -3 9 -1 9 5 0 19 85 89 122 102 21 7 38 16 38 20 0 5 18 12 40 15 22 4 45
13 51 20 6 8 16 11 21 8 14 -9 58 5 58 19 0 8 20 13 58 13 31 1 82 6 112 12
67 12 228 13 236 1z m-7241 -3559 c3 -5 14 -10 24 -10 22 0 66 -46 80 -83 6
-15 14 -26 19 -25 12 4 118 -106 149 -155 25 -39 64 -116 83 -162 4 -11 14
-47 21 -80 7 -33 16 -64 19 -70 4 -5 10 -26 13 -45 10 -66 25 -112 42 -124 12
-9 17 -32 20 -96 2 -47 9 -105 14 -130 6 -25 14 -61 17 -80 3 -19 9 -44 14
-55 21 -54 34 -116 35 -172 1 -35 4 -66 8 -69 4 -4 7 -22 7 -41 0 -18 5 -33
10 -33 6 0 10 -11 10 -25 0 -13 10 -41 21 -62 20 -34 21 -53 21 -195 -1 -93
-5 -165 -12 -178 -8 -14 -8 -26 0 -41 8 -13 8 -30 2 -47 -13 -40 -15 -222 -3
-255 6 -15 13 -66 15 -112 2 -46 6 -88 9 -92 3 -5 2 -15 -3 -23 -5 -9 -5 -19
2 -27 6 -7 7 -32 3 -60 -3 -27 -8 -93 -11 -148 -2 -55 -5 -104 -5 -110 0 -5 4
-37 10 -70 12 -64 14 -388 3 -381 -4 2 -7 -14 -6 -35 0 -22 -8 -59 -19 -82
-11 -23 -26 -58 -35 -77 -9 -19 -24 -43 -33 -52 -16 -15 -15 -22 12 -100 19
-55 29 -104 29 -145 0 -34 4 -72 9 -85 32 -80 41 -116 48 -188 3 -30 12 -65
20 -78 8 -13 12 -30 9 -38 -3 -9 -1 -12 4 -9 14 9 13 -18 -2 -33 -8 -8 -8 -15
1 -26 7 -8 11 -23 9 -34 -2 -10 3 -26 10 -35 11 -12 13 -42 9 -124 -9 -169
-16 -253 -26 -271 -13 -26 -12 -95 2 -104 9 -6 9 -12 0 -28 -7 -11 -13 -29
-13 -39 0 -11 -4 -22 -9 -26 -11 -6 -9 -84 2 -101 3 -6 7 -30 8 -55 1 -24 8
-59 16 -78 8 -18 16 -39 17 -45 1 -6 8 -21 14 -33 10 -19 10 -23 -1 -23 -31 0
-35 -42 -10 -98 18 -41 21 -57 13 -72 -7 -14 -7 -20 0 -20 5 0 9 -10 8 -22 0
-13 7 -49 16 -81 10 -32 15 -65 12 -73 -3 -8 4 -24 15 -35 19 -19 19 -22 5
-62 -22 -60 -24 -88 -10 -170 7 -39 10 -75 7 -80 -3 -4 0 -20 6 -35 6 -15 13
-54 16 -87 15 -164 26 -227 53 -301 17 -45 31 -97 33 -115 5 -74 3 -498 -3
-563 -5 -55 -3 -77 13 -113 10 -25 19 -55 19 -69 0 -13 9 -38 20 -56 11 -18
20 -39 20 -46 0 -7 12 -38 26 -68 17 -37 31 -54 44 -54 16 0 18 -6 14 -32 -4
-25 1 -43 20 -71 14 -21 26 -42 26 -47 0 -6 6 -10 13 -10 6 0 18 -19 25 -42 7
-24 22 -67 34 -96 18 -47 26 -55 75 -77 34 -16 72 -25 103 -25 27 0 52 -5 55
-10 3 -6 16 -8 29 -4 24 6 211 -50 221 -66 3 -6 14 -10 23 -10 9 0 27 -6 39
-13 12 -6 50 -27 85 -46 35 -18 72 -43 83 -55 11 -11 31 -23 45 -24 14 -2 32
-10 40 -17 8 -7 22 -13 30 -13 8 -1 40 -4 70 -8 30 -4 64 -7 75 -7 34 0 170
40 229 67 31 14 61 26 67 26 16 0 73 25 161 71 88 45 135 49 288 23 90 -15
205 -13 300 6 30 6 65 12 78 13 12 1 22 5 22 9 0 9 49 58 58 58 4 0 22 13 40
30 18 16 45 32 60 34 29 5 191 15 382 23 104 4 163 9 395 28 38 3 86 10 107
16 21 5 70 10 108 10 46 0 72 5 80 14 8 10 18 11 36 4 14 -5 63 -6 110 -3 70
6 87 4 97 -9 8 -10 34 -16 75 -19 35 -3 67 -9 70 -15 4 -5 39 -11 77 -12 39
-1 88 -7 110 -13 22 -5 64 -11 94 -13 37 -2 57 -7 63 -19 5 -9 15 -16 22 -16
7 0 23 -9 35 -19 12 -10 42 -25 66 -32 25 -7 45 -17 45 -22 0 -4 5 -5 10 -2 6
4 25 -3 43 -13 66 -41 170 -59 337 -57 86 1 161 -3 168 -8 7 -6 12 -6 12 0 0
12 -5 11 170 17 116 4 314 16 340 20 3 1 10 4 15 7 6 3 33 7 60 8 28 1 64 6
80 11 17 5 53 9 80 9 136 1 154 2 159 10 3 5 47 9 97 10 50 1 100 6 110 12 13
7 25 6 39 -1 12 -7 27 -7 38 -2 9 5 54 7 98 3 112 -8 188 -6 259 8 33 7 110
16 170 21 61 4 124 11 140 14 17 3 86 7 155 9 78 2 134 9 150 17 17 9 79 13
215 15 105 1 198 6 206 11 7 5 70 12 139 16 69 4 158 10 199 14 47 4 77 2 84
-5 6 -6 28 -11 50 -11 21 0 48 -5 60 -12 29 -15 660 -22 688 -7 10 5 19 16 19
24 0 12 15 15 69 15 69 0 70 0 73 -27 3 -24 9 -29 43 -34 22 -4 67 -14 100
-23 63 -18 241 -21 251 -5 3 5 29 9 57 9 29 0 68 5 87 10 60 17 151 22 181 9
16 -6 27 -15 24 -19 -3 -5 13 1 35 11 22 11 45 17 51 14 5 -4 18 -3 27 1 40
17 293 22 663 14 64 -1 131 2 150 8 19 6 52 13 74 15 22 3 74 12 115 22 88 19
263 27 299 13 17 -6 27 -6 29 1 3 9 41 7 72 -5 30 -12 100 -6 125 10 14 9 25
12 25 7 0 -6 7 -8 15 -5 9 4 15 0 15 -9 0 -13 12 -15 68 -13 37 2 78 6 92 9
14 4 106 11 205 17 149 10 181 9 190 -2 11 -15 29 -17 41 -6 4 4 14 2 22 -4 8
-7 29 -13 46 -14 17 -1 56 -9 86 -18 71 -21 231 -32 267 -18 16 6 64 13 108
16 156 12 215 19 215 26 0 4 30 13 68 20 37 6 74 14 82 18 8 3 24 7 35 8 51 7
211 45 271 64 17 6 42 10 57 10 14 0 28 4 31 8 3 5 63 12 133 16 136 7 245 21
278 37 27 13 135 5 145 -10 4 -7 18 -12 31 -10 13 1 32 -2 42 -6 10 -4 29 -3
43 4 44 20 78 14 96 -16 9 -16 30 -33 47 -40 27 -10 31 -9 32 5 0 13 3 12 11
-4 5 -11 25 -27 44 -34 19 -8 34 -19 34 -25 0 -7 23 -15 56 -18 31 -3 64 -13
74 -22 22 -20 126 -19 134 2 3 7 14 13 25 13 11 0 50 16 88 36 71 37 133 47
423 69 47 4 117 13 155 21 39 8 77 15 85 15 8 1 33 7 55 14 22 7 55 15 73 18
18 3 45 13 59 22 14 9 36 15 49 12 13 -2 21 -1 19 3 -3 4 11 15 30 24 19 9 37
21 40 26 3 4 27 16 54 25 27 9 56 24 66 35 9 10 27 21 39 24 12 3 39 30 60 61
21 30 42 55 47 55 5 0 9 13 9 29 0 16 6 31 13 34 16 6 67 106 67 130 0 9 5 19
11 22 6 4 8 13 5 20 -2 7 2 16 10 19 8 3 14 14 14 25 0 11 4 22 8 25 4 2 9 33
10 68 2 62 16 142 33 186 5 13 9 36 9 52 0 16 4 31 9 35 13 7 12 124 0 146
-15 28 -14 240 1 249 8 5 9 13 4 21 -11 19 -13 49 -2 55 4 3 5 10 2 16 -19 30
-22 408 -4 463 26 81 51 141 72 175 12 19 23 45 25 56 2 12 14 41 28 65 13 24
35 67 49 95 13 28 30 57 38 65 7 8 19 26 27 41 7 15 46 60 86 101 64 66 87 83
197 136 68 34 135 61 148 61 14 0 34 1 45 1 11 1 35 1 53 0 75 -3 91 0 100 14
7 14 12 13 38 -7 16 -12 33 -28 37 -35 4 -7 14 -13 22 -13 22 0 105 -100 105
-126 0 -13 14 -54 32 -91 17 -38 32 -77 33 -88 1 -11 3 -22 5 -25 1 -3 4 -75
6 -160 3 -150 21 -252 48 -271 5 -4 6 -15 2 -24 -3 -9 -3 -22 1 -28 11 -17 11
-100 0 -114 -5 -7 -6 -21 -1 -30 8 -18 13 -40 18 -79 1 -11 5 -24 8 -30 3 -5
7 -76 7 -158 1 -82 4 -153 7 -157 2 -4 9 -34 15 -66 6 -32 18 -66 27 -77 10
-10 18 -30 19 -45 0 -14 5 -70 10 -125 7 -78 6 -104 -5 -125 -10 -20 -12 -45
-6 -101 6 -66 10 -444 5 -517 -4 -55 11 -115 30 -120 25 -7 24 -40 -1 -53 -18
-9 -20 -20 -19 -105 1 -87 -1 -96 -22 -113 -26 -22 -21 -56 8 -45 15 5 16 3 6
-8 -16 -16 -17 -63 -3 -90 6 -10 11 -36 12 -56 0 -21 5 -48 9 -60 5 -12 9
-104 10 -203 1 -99 6 -183 11 -186 14 -9 9 -52 -7 -58 -17 -6 -26 -26 -51
-111 -10 -33 -21 -62 -24 -65 -24 -19 -31 -76 -26 -192 15 -322 14 -319 46
-381 17 -31 30 -68 30 -82 0 -13 5 -27 10 -30 6 -3 10 -33 10 -65 0 -32 5 -62
10 -65 14 -8 14 -412 0 -420 -12 -8 -13 -207 -1 -221 5 -5 11 -43 14 -84 7
-98 13 -132 26 -139 6 -4 6 -12 1 -21 -5 -8 -4 -22 1 -33 7 -11 8 -69 5 -150
-13 -301 -10 -371 25 -602 18 -113 22 -275 9 -300 -11 -20 -9 -30 9 -65 11
-22 21 -49 21 -60 0 -11 10 -28 22 -39 17 -17 19 -23 8 -36 -20 -24 -9 -352
13 -385 8 -14 18 -47 20 -75 6 -55 16 -112 24 -135 3 -8 5 -38 4 -67 -2 -28 5
-80 14 -116 18 -71 16 -222 -4 -387 -6 -47 -13 -108 -17 -137 -3 -28 -1 -59 4
-69 7 -12 6 -26 -1 -42 -8 -17 -8 -28 1 -43 7 -10 12 -30 12 -44 0 -14 7 -28
15 -32 9 -3 22 -20 30 -38 13 -33 31 -141 26 -160 -7 -27 -8 -171 -1 -185 9
-16 -2 -84 -19 -125 -19 -46 -30 -88 -25 -96 3 -5 -1 -21 -10 -36 -28 -55 -39
-93 -28 -106 5 -6 12 -25 15 -42 18 -103 37 -176 51 -194 6 -7 9 -44 8 -82 -1
-49 2 -69 11 -69 9 0 9 -2 0 -8 -9 -6 -12 -41 -9 -129 3 -88 1 -123 -8 -126
-8 -3 -13 -43 -15 -122 -2 -96 1 -120 14 -135 12 -13 13 -23 6 -43 -5 -14 -8
-27 -5 -30 3 -2 7 -43 9 -91 2 -47 7 -90 10 -95 3 -5 1 -13 -5 -16 -7 -4 -7
-11 -2 -18 5 -7 10 -34 11 -61 1 -27 6 -55 13 -63 6 -8 12 -25 12 -39 1 -14 8
-29 15 -33 7 -5 9 -11 4 -14 -15 -9 -3 -77 14 -77 11 0 13 -7 8 -29 -5 -22 -1
-36 16 -55 13 -14 29 -26 36 -26 7 0 13 -7 13 -16 0 -9 -5 -12 -12 -8 -7 5 -8
3 -2 -7 5 -8 9 -16 9 -19 5 -38 18 -80 24 -76 4 3 13 -16 21 -42 7 -26 22 -55
31 -66 10 -10 16 -23 13 -28 -3 -5 1 -19 9 -31 7 -12 17 -40 20 -62 18 -106
25 -135 36 -149 8 -9 13 -38 13 -66 0 -36 4 -50 14 -50 17 0 18 -32 2 -48 -18
-18 -18 -162 0 -162 14 0 17 -26 3 -34 -10 -7 -8 -136 2 -153 4 -6 3 -14 -3
-18 -5 -3 -10 -17 -10 -30 0 -13 -4 -26 -9 -29 -5 -3 -9 -22 -9 -41 0 -20 -4
-41 -10 -48 -11 -13 -11 -97 -1 -97 4 0 7 -20 7 -45 0 -25 6 -52 12 -60 8 -10
8 -19 2 -32 -7 -12 -7 -24 1 -38 6 -11 11 -73 11 -137 1 -64 5 -120 9 -124 4
-4 7 -20 7 -36 0 -16 4 -37 9 -47 5 -9 11 -53 12 -97 1 -43 7 -82 12 -86 6 -3
10 -26 9 -49 -1 -24 3 -59 9 -78 6 -18 13 -46 14 -60 4 -38 16 -71 26 -71 5 0
9 -6 9 -14 0 -8 6 -16 14 -19 8 -3 18 -34 25 -74 13 -80 13 -75 6 -133 -3 -25
-7 -62 -8 -84 -2 -21 -10 -44 -19 -50 -17 -13 -20 -36 -37 -281 -10 -151 -18
-205 -32 -205 -12 0 -11 -67 1 -75 18 -11 11 -33 -20 -62 -16 -15 -30 -38 -30
-50 0 -12 -5 -25 -10 -28 -13 -8 -13 -42 0 -47 5 -1 -15 -29 -45 -61 -29 -31
-51 -57 -47 -57 4 0 -12 -10 -36 -21 -25 -13 -41 -27 -38 -34 6 -17 -14 -35
-39 -35 -12 0 -32 -12 -46 -26 -24 -25 -73 -51 -114 -59 -11 -2 -20 -4 -20 -5
0 -2 -37 -11 -52 -12 -6 -1 -17 -12 -24 -24 -14 -27 -66 -54 -104 -54 -14 0
-35 -5 -46 -11 -11 -6 -35 -11 -52 -11 -18 -1 -35 -6 -39 -12 -6 -8 -11 -7
-17 3 -8 12 -16 13 -52 2 -24 -7 -45 -9 -46 -4 -4 11 -86 9 -104 -3 -7 -4 -14
-3 -17 4 -2 7 -10 12 -18 12 -8 0 -34 9 -59 21 -29 13 -54 19 -70 15 -20 -5
-25 -3 -25 12 0 31 -65 73 -117 74 -22 1 -33 7 -37 21 -2 10 -9 16 -15 12 -6
-3 -11 -2 -11 4 0 6 -6 8 -14 5 -8 -3 -17 -1 -20 5 -11 17 -136 73 -152 67 -8
-3 -14 -2 -14 3 0 12 -120 42 -171 43 -24 0 -53 7 -64 14 -11 8 -27 14 -37 14
-10 0 -18 3 -18 8 0 14 -106 36 -197 40 -51 2 -93 7 -93 11 0 5 -21 8 -47 7
-28 -1 -52 4 -58 12 -7 9 -19 10 -41 3 -19 -5 -36 -5 -41 0 -5 5 -30 10 -56
11 -26 1 -47 5 -47 9 0 7 -32 15 -130 29 -36 6 -76 16 -90 24 -14 8 -40 17
-57 21 -18 3 -33 10 -33 15 0 5 -98 9 -217 10 -120 0 -225 2 -233 4 -8 1 -33
6 -55 10 -22 4 -47 10 -55 13 -13 5 -87 14 -115 14 -5 0 -23 -3 -38 -7 -24 -6
-28 -4 -25 12 2 13 -4 20 -19 22 -12 2 -25 12 -28 23 -4 10 -15 19 -26 19 -10
0 -19 4 -19 10 0 5 -6 7 -13 4 -7 -2 -22 4 -32 16 -10 11 -44 27 -76 36 -33 9
-59 21 -59 26 0 5 -4 7 -8 4 -5 -3 -22 2 -38 11 -77 41 -104 44 -329 44 -163
1 -230 4 -260 15 -22 7 -50 14 -62 14 -13 0 -23 5 -23 11 0 7 -9 9 -22 5 -20
-5 -92 11 -153 34 -43 16 -91 31 -109 35 -10 2 -24 9 -30 15 -7 5 -16 7 -19 4
-4 -4 -17 0 -29 8 -26 17 -109 49 -121 48 -5 -1 -23 9 -40 22 -39 30 -61 39
-107 44 -19 3 -51 7 -70 11 -19 4 -44 8 -55 9 -11 1 -38 7 -60 12 -46 12 -133
17 -155 9 -81 -30 -99 -31 -264 -23 -81 3 -124 10 -135 19 -26 23 -164 67
-222 70 -55 4 -119 25 -119 39 0 4 -9 8 -19 8 -11 0 -22 4 -25 9 -5 8 -41 18
-96 28 -14 2 -27 8 -28 14 -2 5 -7 7 -12 4 -5 -3 -21 0 -36 5 -21 8 -34 8 -52
-1 -19 -11 -25 -11 -32 1 -5 8 -23 15 -40 16 -17 1 -41 11 -53 22 -15 13 -44
22 -87 27 -36 3 -77 9 -91 12 -15 3 -32 -1 -40 -9 -8 -7 -30 -13 -49 -12 -19
2 -41 3 -48 3 -7 1 -11 4 -8 9 2 4 -2 16 -9 26 -12 15 -35 20 -137 28 -68 5
-193 16 -278 25 -85 8 -203 16 -262 17 -70 1 -111 5 -119 13 -9 9 -16 9 -25 2
-9 -7 -19 -7 -33 1 -13 6 -27 7 -38 2 -42 -21 -83 -30 -83 -19 0 7 -4 18 -9
26 -8 12 -13 12 -36 -3 -25 -17 -28 -17 -45 -1 -11 10 -32 18 -47 19 -15 1
-34 5 -42 10 -8 5 -42 10 -75 11 -78 2 -129 21 -123 45 5 20 -17 30 -65 30
-15 0 -29 4 -32 9 -3 4 -18 7 -33 5 -16 -2 -38 1 -50 8 -17 8 -26 8 -38 -2
-11 -9 -15 -9 -15 0 0 8 -10 9 -30 5 -25 -5 -30 -3 -30 12 -1 17 -2 17 -16 -2
-10 -14 -17 -16 -22 -8 -4 6 -21 12 -37 13 -17 0 -39 1 -50 1 -11 1 -76 0
-144 -1 -104 -1 -127 -4 -137 -18 -12 -16 -14 -15 -34 5 -11 13 -24 23 -28 24
-51 5 -79 12 -92 24 -9 8 -24 15 -34 15 -9 0 -19 6 -22 14 -6 14 -21 16 -40 3
-7 -4 -17 -1 -23 7 -9 11 -9 15 1 19 9 3 5 11 -12 25 -25 21 -44 26 -87 23
-11 -1 -24 2 -27 8 -4 6 -20 8 -35 5 -16 -3 -39 0 -52 7 -29 16 -90 20 -106 7
-7 -5 -16 -7 -21 -4 -5 3 -24 8 -43 11 -19 3 -47 8 -64 11 -16 3 -34 9 -41 15
-14 11 -99 27 -179 34 -33 2 -61 8 -63 13 -1 5 -18 8 -37 6 -19 -1 -35 1 -35
6 0 13 -101 40 -159 42 -28 2 -51 6 -51 10 0 5 -7 8 -15 8 -8 0 -23 4 -33 9
-9 5 -29 14 -44 22 -16 7 -28 18 -28 25 0 10 -55 37 -63 31 -1 -1 -23 11 -49
26 -26 15 -53 27 -62 27 -8 0 -37 15 -63 33 l-48 32 -190 8 c-104 5 -238 8
-297 7 -59 -1 -138 3 -175 9 -38 6 -90 13 -117 15 -27 3 -54 10 -59 15 -6 6
-19 11 -29 11 -9 0 -21 6 -25 13 -4 8 -19 21 -33 30 -22 14 -62 16 -310 14
l-285 -3 -27 28 c-15 15 -36 28 -48 28 -11 0 -20 3 -20 8 0 13 -48 30 -57 21
-6 -6 -26 2 -49 19 -22 16 -58 35 -79 42 -22 7 -49 20 -60 29 -20 17 -31 22
-110 56 -22 9 -57 26 -78 36 -21 10 -43 19 -50 19 -7 0 -28 8 -47 18 -21 12
-68 22 -119 26 -46 4 -97 14 -113 22 -31 16 -32 16 -101 -16 -25 -12 -31 -11
-71 18 -24 18 -49 32 -55 32 -6 0 -30 7 -53 14 -42 15 -151 30 -196 27 -13 0
-36 9 -52 21 -24 17 -32 19 -45 8 -12 -10 -15 -10 -15 3 0 9 -5 19 -12 23 -6
4 -8 3 -4 -4 10 -17 -5 -20 -64 -12 -91 13 -121 20 -157 35 -20 8 -51 15 -69
15 -19 0 -34 5 -34 10 0 14 -74 12 -88 -2 -9 -9 -12 -9 -12 0 0 7 -9 12 -20
12 -11 0 -20 5 -20 10 0 6 -10 10 -22 10 -13 0 -41 6 -63 14 -22 7 -76 16
-121 19 -67 5 -91 11 -145 41 -35 19 -84 38 -109 42 -25 4 -73 22 -106 39 -54
29 -74 34 -170 40 -60 4 -174 8 -254 9 -134 1 -236 15 -285 37 -11 5 -49 11
-85 14 -36 2 -92 11 -125 19 -71 19 -104 21 -127 11 -13 -5 -18 -3 -18 9 0 9
-8 16 -20 16 -11 0 -29 9 -40 20 -11 11 -39 23 -62 26 -24 4 -48 11 -55 16 -6
5 -27 10 -47 11 -19 2 -38 6 -42 10 -4 4 -20 7 -35 7 -15 0 -31 5 -34 10 -3 6
-26 10 -51 10 -25 0 -53 4 -63 9 -14 8 -73 15 -221 26 -34 2 -70 15 -70 24 0
4 -14 7 -30 6 -17 -1 -33 2 -36 6 -3 5 -18 6 -35 2 -19 -4 -36 0 -47 9 -15 13
-65 30 -129 43 -13 3 -33 7 -45 10 -12 2 -27 0 -34 -6 -8 -7 -18 -3 -32 16
-15 19 -29 25 -60 25 -23 0 -44 5 -47 10 -3 6 -16 10 -28 10 -34 0 -127 24
-127 32 0 5 -6 8 -13 8 -7 0 -17 10 -22 23 -9 19 -18 22 -63 22 -35 1 -56 6
-62 15 -6 8 -10 12 -10 8 0 -4 -12 -3 -27 3 -16 6 -65 11 -110 12 -49 2 -87 7
-95 15 -6 6 -22 12 -34 12 -23 0 -48 22 -37 33 10 11 -30 8 -47 -3 -9 -6 -17
-5 -21 2 -4 7 -13 7 -26 -1 -18 -9 -32 -9 -83 4 -8 2 -18 4 -22 4 -4 1 -5 7
-2 15 5 14 -2 19 -86 62 -19 10 -40 23 -47 29 -6 7 -44 28 -85 48 -70 36 -138
87 -138 105 0 5 -20 22 -45 38 -25 15 -47 36 -51 46 -3 10 -12 18 -20 18 -8 0
-14 9 -14 20 0 11 -5 20 -11 20 -6 0 -47 38 -92 84 -45 45 -92 86 -104 90 -11
4 -43 31 -71 61 -27 30 -55 55 -61 55 -6 0 -17 11 -23 25 -10 23 -20 29 -40
26 -5 0 -8 8 -8 19 0 11 -5 20 -10 20 -6 0 -15 12 -20 28 -6 15 -15 37 -20 50
-6 12 -15 34 -21 50 -6 15 -15 35 -20 44 -5 10 -9 24 -9 32 0 7 -9 16 -21 19
-17 5 -20 11 -14 35 3 17 2 39 -4 49 -5 10 -14 36 -19 58 -23 93 -46 161 -60
177 -9 11 -12 27 -8 42 3 14 2 28 -4 31 -5 3 -10 14 -10 24 0 27 -30 81 -49
89 -18 8 -27 32 -11 32 11 0 1 63 -12 68 -4 2 -8 11 -8 21 0 17 -96 211 -109
221 -4 3 -20 28 -36 55 -15 28 -43 67 -62 88 -18 20 -33 41 -33 45 0 4 -34 43
-75 86 -42 43 -78 89 -81 102 -3 13 -15 26 -25 29 -12 4 -19 16 -19 30 0 15
-7 26 -20 30 -11 3 -20 14 -21 23 0 9 -9 31 -19 47 -11 17 -26 46 -35 64 -9
19 -27 49 -40 67 -14 18 -25 38 -25 44 0 6 -8 25 -17 43 -18 34 -31 92 -40
170 -3 26 -9 47 -14 47 -5 0 -9 10 -9 23 0 13 -3 27 -7 31 -4 4 -13 28 -20 54
-14 54 -17 318 -4 326 5 3 9 21 10 38 1 51 8 121 13 143 3 11 -1 28 -8 39 -15
22 -9 67 13 83 18 14 38 66 48 125 4 21 22 67 40 101 17 35 35 76 38 92 11 60
17 80 27 83 5 2 10 9 10 16 0 7 9 31 20 54 11 22 20 50 20 62 0 11 4 20 9 20
6 0 8 10 6 21 -3 12 6 35 19 53 13 17 27 42 31 56 7 25 43 105 77 171 10 20
18 42 18 49 0 6 9 24 21 38 18 24 20 38 18 162 -1 74 -6 150 -10 170 -4 19 -4
39 0 45 12 14 14 167 2 174 -5 3 -10 24 -12 46 -1 22 -6 45 -9 50 -4 6 -12 29
-20 52 -13 42 -42 70 -77 76 -31 5 -158 76 -222 124 -24 18 -62 38 -85 44 -54
15 -116 42 -116 51 0 5 -9 8 -20 8 -11 0 -20 5 -20 10 0 6 -9 10 -20 10 -11 0
-28 12 -38 28 -9 15 -26 29 -37 30 -11 2 -21 7 -23 12 -2 4 -15 21 -30 37 -66
72 -122 158 -122 189 0 7 -4 14 -9 16 -6 2 -12 14 -14 28 -2 14 -7 32 -10 40
-13 34 -19 93 -27 250 -5 91 -14 201 -19 245 -6 44 -14 112 -17 150 -4 46 -11
74 -21 82 -15 11 -15 13 0 19 14 5 15 21 11 122 -11 237 -6 402 14 439 7 12
12 29 12 38 0 9 9 30 21 46 11 16 18 33 15 38 -3 4 5 21 18 36 14 16 26 46 29
69 8 64 19 100 32 108 7 4 10 19 8 33 -4 17 0 27 11 31 21 8 46 66 46 106 0
16 4 38 10 48 5 10 10 69 9 132 0 62 0 138 0 168 0 30 -4 59 -8 65 -5 5 -11
37 -15 70 -13 131 -33 232 -48 252 -10 12 -12 40 -22 243 -4 96 11 312 23 319
5 3 7 56 5 116 -2 61 -5 143 -7 183 -1 41 1 76 5 78 7 5 4 27 -7 55 -3 9 1 21
9 28 13 11 13 17 0 46 -8 19 -14 44 -14 55 0 11 -4 20 -10 20 -5 0 -10 16 -10
36 0 19 -4 43 -9 53 -5 9 -11 30 -14 46 -2 17 -6 37 -10 45 -7 19 -17 71 -24
130 -3 25 -9 50 -14 56 -10 12 -6 351 4 391 3 12 7 50 9 83 1 33 6 60 11 60 4
0 6 4 3 8 -2 4 2 23 11 42 8 19 19 45 24 58 5 12 13 32 18 45 11 27 11 57 -1
57 -4 0 -8 26 -8 58 0 60 -23 145 -46 172 -17 20 -65 110 -59 110 8 0 -49 84
-62 93 -7 4 -13 14 -13 21 0 8 -6 19 -14 25 -8 7 -13 21 -11 31 2 11 1 19 -3
19 -24 -4 -32 4 -32 31 0 17 -4 30 -8 30 -5 0 -15 30 -22 66 -9 42 -21 71 -32
78 -19 12 -25 61 -8 71 6 3 10 44 10 90 0 46 -4 87 -10 90 -13 8 -13 52 0 57
6 2 13 19 15 38 7 50 13 81 24 110 9 26 25 83 37 135 4 17 6 38 5 47 -1 10 9
28 22 40 13 13 30 38 38 56 8 17 20 32 26 32 11 0 18 26 15 51 -1 4 10 10 23
13 17 4 25 13 25 27 0 11 5 30 11 42 7 12 12 37 13 57 1 28 5 36 24 38 12 2
23 8 23 13 9 62 -2 152 -24 209 -3 8 -15 54 -27 103 -18 70 -21 109 -18 196 3
114 11 135 55 152 13 5 23 15 23 24 0 8 6 15 13 15 34 1 146 144 158 203 9 39
19 69 40 109 5 10 9 32 9 49 0 16 5 39 10 50 7 12 11 168 10 443 0 344 -3 431
-15 465 -8 22 -11 41 -8 41 4 0 2 5 -5 12 -7 7 -12 27 -12 45 0 18 -4 33 -9
33 -16 0 -23 72 -28 268 -2 121 0 198 6 206 6 7 8 22 5 33 -4 14 1 28 15 42
11 11 23 37 27 58 18 97 91 200 167 236 20 10 38 21 41 26 3 4 36 23 73 42 37
19 70 37 73 40 11 13 199 69 231 69 19 0 41 5 49 10 20 13 237 13 245 0z
m5265 -734 c160 -18 173 -23 206 -72 16 -24 32 -44 37 -44 4 0 7 -8 7 -18 0
-10 12 -32 28 -50 22 -26 39 -34 87 -42 194 -32 251 -40 267 -35 9 4 39 8 65
11 26 2 62 7 78 9 108 18 141 23 150 26 6 2 29 0 53 -4 28 -5 63 -2 104 8 33
9 66 14 74 11 7 -3 14 0 16 5 4 13 37 15 273 24 256 10 282 12 360 29 133 29
310 21 345 -14 12 -12 34 -23 50 -27 17 -3 30 -11 30 -17 0 -16 69 -60 110
-69 90 -21 170 -9 219 32 49 42 139 70 204 65 103 -9 383 -7 457 3 72 10 217
46 252 64 9 4 38 5 65 1 26 -4 75 -5 108 -2 79 7 210 -5 315 -29 200 -45 333
-61 574 -66 86 -2 159 -6 164 -9 4 -2 14 -1 22 4 8 5 22 3 35 -6 16 -11 29
-12 48 -5 14 5 28 7 31 3 4 -3 19 -6 34 -7 15 0 26 -6 25 -11 -1 -7 12 -10 34
-7 20 2 39 -1 43 -7 4 -6 27 -14 51 -17 24 -3 51 -11 59 -18 26 -21 75 -25
121 -8 94 33 346 53 446 36 59 -11 405 3 453 17 32 10 185 31 235 32 11 1 53
-3 93 -7 57 -6 76 -5 82 5 7 11 12 10 25 -4 9 -9 25 -14 34 -12 9 3 48 -6 86
-19 39 -14 83 -25 98 -25 17 0 26 -4 22 -10 -4 -7 2 -9 19 -4 22 5 26 3 26
-14 0 -11 8 -23 18 -26 41 -13 226 -42 317 -51 68 -6 109 -16 116 -28 4 -5 29
-11 57 -12 27 -1 54 -5 59 -8 4 -3 31 -6 58 -8 28 -1 56 -7 62 -12 7 -5 27
-10 45 -12 18 -1 53 -14 78 -28 47 -27 140 -44 200 -37 37 5 97 4 755 -4 856
-11 943 -13 961 -21 11 -5 21 -9 24 -10 3 -1 12 -4 20 -7 8 -3 35 -13 60 -22
25 -9 67 -36 93 -60 26 -25 61 -51 78 -58 16 -7 29 -18 29 -24 0 -7 7 -14 15
-18 8 -3 15 -11 15 -19 0 -7 11 -24 25 -37 14 -13 47 -56 73 -95 26 -38 59
-87 75 -107 19 -25 26 -45 23 -62 -3 -15 1 -27 10 -30 9 -3 14 -20 14 -45 0
-22 5 -43 10 -46 6 -3 10 -17 10 -30 0 -13 5 -27 10 -30 6 -3 10 -20 10 -37 0
-17 6 -39 14 -47 10 -11 17 -53 22 -131 3 -63 13 -140 21 -170 8 -30 20 -73
25 -95 15 -58 22 -362 9 -394 -6 -14 -12 -61 -13 -104 -1 -43 -6 -81 -10 -83
-4 -3 -8 -25 -8 -50 0 -25 -5 -54 -11 -65 -6 -12 -12 -102 -14 -217 -4 -250
-4 -208 1 -486 3 -158 1 -243 -6 -250 -5 -5 -10 -31 -10 -57 0 -26 -4 -50 -9
-54 -12 -7 -12 -77 -1 -96 5 -7 4 -21 -1 -31 -7 -13 -6 -18 3 -18 9 0 9 -3 0
-12 -8 -8 -12 -45 -12 -101 0 -48 -5 -98 -11 -110 -8 -14 -11 -71 -10 -158 1
-100 -2 -147 -12 -172 -8 -19 -18 -54 -22 -78 -4 -24 -12 -50 -18 -57 -8 -10
-8 -19 1 -32 9 -16 8 -20 -7 -25 -15 -4 -20 -19 -25 -63 -11 -112 -17 -157
-26 -177 -5 -11 -11 -31 -14 -45 -23 -114 -42 -153 -90 -177 -17 -8 -41 -25
-53 -36 -13 -11 -23 -18 -23 -14 0 5 -29 -6 -135 -53 -100 -45 -190 -70 -251
-70 -35 0 -65 -4 -68 -8 -4 -8 -150 -7 -368 1 -73 3 -98 0 -102 -10 -3 -7 -24
-16 -46 -19 -25 -4 -46 -15 -53 -26 -7 -10 -41 -33 -77 -51 -36 -18 -68 -36
-71 -40 -3 -5 -10 -8 -15 -7 -15 3 -114 -34 -114 -42 0 -4 -11 -8 -26 -8 -14
0 -44 -9 -67 -19 -48 -22 -79 -28 -197 -36 -46 -4 -88 -9 -92 -11 -4 -3 -22 3
-39 11 -17 9 -40 15 -50 12 -11 -3 -22 -1 -25 4 -3 5 -18 9 -33 9 -15 0 -33 6
-39 12 -7 7 -38 18 -70 26 -98 23 -122 25 -122 13 0 -7 -5 -9 -11 -5 -6 3 -9
14 -6 24 3 13 0 17 -9 13 -8 -3 -20 -1 -27 4 -6 6 -66 15 -132 22 -66 6 -136
14 -155 18 -19 3 -51 7 -70 8 -46 4 -239 32 -269 39 -12 3 -28 9 -35 14 -6 6
-31 12 -56 16 -58 7 -90 16 -90 26 0 7 -27 11 -166 26 -33 4 -54 2 -58 -5 -4
-6 -21 -11 -38 -11 -17 0 -58 -4 -92 -10 -106 -16 -220 -30 -261 -32 -22 -1
-43 -6 -46 -11 -4 -5 -27 -10 -52 -11 -46 -3 -107 -23 -107 -35 0 -4 -19 -7
-42 -6 -24 1 -47 -1 -53 -4 -15 -9 -375 -7 -375 2 0 4 -9 7 -19 7 -11 0 -21 5
-23 11 -7 22 -85 42 -178 46 -52 3 -99 9 -104 14 -13 12 -89 12 -102 -1 -5 -5
-70 -11 -144 -14 -74 -3 -166 -8 -204 -12 -46 -4 -81 -2 -108 7 -31 10 -44 10
-59 1 -23 -15 -75 -16 -84 -2 -3 6 -42 10 -85 10 -43 0 -81 4 -84 8 -3 5 -33
9 -68 9 -35 0 -76 7 -91 14 -21 9 -33 10 -45 2 -10 -6 -26 -7 -39 -2 -12 4
-63 3 -114 -2 -64 -7 -95 -7 -102 0 -8 8 -16 6 -27 -4 -13 -11 -24 -13 -41 -7
-13 5 -34 8 -46 6 -19 -3 -23 1 -23 21 0 20 -6 25 -35 31 -19 3 -38 10 -41 15
-3 5 -17 9 -32 9 -34 0 -44 8 -59 42 -8 17 -23 30 -40 33 -15 3 -41 10 -58 15
-51 16 -116 14 -210 -4 -76 -15 -120 -17 -290 -12 -201 7 -319 14 -343 21 -7
3 -23 0 -36 -5 -18 -6 -28 -5 -36 6 -7 7 -21 14 -31 14 -10 0 -30 5 -46 11
-15 7 -89 13 -163 14 -74 2 -155 7 -180 13 -25 6 -56 13 -68 16 -13 3 -34 -1
-45 -9 -33 -20 -318 -30 -432 -14 -110 15 -134 15 -210 0 -33 -7 -118 -15
-189 -18 -111 -4 -135 -8 -174 -29 -25 -13 -52 -24 -62 -24 -9 0 -48 -16 -87
-35 -39 -19 -78 -35 -87 -35 -9 0 -16 -4 -16 -10 0 -5 -8 -10 -19 -10 -10 0
-50 -14 -87 -31 -102 -46 -106 -47 -149 -53 -22 -3 -78 -13 -125 -22 -53 -10
-142 -17 -235 -17 -146 -1 -151 -1 -199 26 -58 32 -103 42 -122 26 -11 -9 -14
-9 -14 1 0 9 -14 10 -51 5 -38 -5 -54 -3 -67 8 -30 27 -92 57 -117 57 -13 0
-27 5 -30 10 -3 6 -16 10 -29 10 -25 0 -60 32 -49 44 5 4 4 7 -2 5 -5 -1 -32
8 -59 21 -38 17 -61 21 -102 18 -29 -3 -51 -1 -49 3 13 21 -118 26 -137 5 -11
-12 -15 -12 -30 1 -13 11 -35 16 -75 14 -71 -2 -113 7 -113 24 0 18 -17 23
-148 40 -100 14 -399 18 -762 13 -35 -1 -138 12 -175 21 -22 6 -64 11 -92 11
-29 0 -53 4 -53 8 0 4 -35 13 -77 19 -43 6 -79 16 -81 22 -2 5 -9 8 -17 5 -7
-3 -27 2 -44 10 -16 9 -41 16 -55 16 -14 0 -28 5 -31 10 -3 6 -19 10 -34 10
-17 0 -38 11 -56 30 -16 17 -37 30 -47 30 -10 0 -23 9 -30 20 -7 11 -18 20
-24 20 -11 0 -72 49 -128 105 -17 16 -34 29 -37 28 -3 -1 -31 18 -62 43 -56
44 -107 110 -107 138 0 8 -4 18 -10 21 -5 3 -9 16 -9 28 0 12 -5 42 -11 67 -8
30 -10 78 -5 145 4 55 9 151 11 213 2 63 8 121 12 130 4 9 8 41 7 69 0 36 4
54 13 58 16 6 12 134 -7 218 -13 60 -5 345 10 364 7 7 8 25 5 40 -4 16 -11 46
-16 68 -6 22 -13 60 -16 85 -3 25 -9 56 -14 70 -16 44 -50 187 -50 212 0 12 0
34 0 48 0 14 -6 41 -12 60 -6 19 -11 48 -10 64 0 17 -4 36 -10 43 -10 13 -5
221 9 364 7 61 13 81 36 108 15 18 27 39 27 46 0 7 9 30 19 52 11 21 27 56 36
78 10 22 31 56 46 76 16 20 29 41 29 46 0 4 9 14 20 21 11 7 20 17 20 24 0 6
17 27 38 47 20 20 51 60 67 90 17 29 36 59 43 66 15 16 42 100 42 130 0 14 7
21 21 22 27 2 57 29 61 56 2 11 11 21 20 23 25 3 59 39 53 55 -3 9 13 28 45
52 27 21 50 43 50 50 0 6 18 30 40 52 21 22 39 46 40 53 0 6 8 12 18 12 10 0
36 15 58 33 47 39 140 103 197 135 23 13 51 32 62 42 23 21 82 58 108 66 9 4
17 10 17 15 0 5 8 9 19 9 25 0 126 47 141 65 7 8 19 15 26 15 18 0 130 85 138
105 3 8 12 15 19 15 8 0 22 9 32 20 10 11 23 20 30 20 7 0 20 9 30 20 10 11
25 20 34 20 9 0 39 11 66 25 28 13 60 25 71 25 12 0 39 6 60 14 27 9 47 10 64
4 13 -5 49 -8 80 -7 30 0 165 -2 300 -6 207 -6 256 -4 320 9 41 9 91 18 110
20 76 8 183 26 189 32 6 6 124 1 221 -10z"/>
<path d="M27790 29620 c0 -5 7 -7 15 -4 8 4 15 8 15 10 0 2 -7 4 -15 4 -8 0
-15 -4 -15 -10z"/>
<path d="M18244 12799 c-3 -6 -1 -16 5 -22 8 -8 11 -5 11 11 0 24 -5 28 -16
11z"/>
<path d="M3885 13399 c-49 -11 -101 -19 -115 -17 -14 1 -31 -2 -39 -6 -7 -5
-34 -9 -59 -10 -35 -1 -47 -6 -53 -21 -4 -11 -8 -14 -8 -7 -1 10 -5 10 -17 -2
-19 -19 -20 -19 -76 -2 -39 11 -50 11 -79 -1 -18 -7 -39 -11 -46 -9 -7 3 -22
-8 -33 -24 -12 -17 -18 -30 -14 -30 3 0 1 -7 -6 -15 -8 -10 -17 -12 -29 -6
-21 12 -74 -14 -126 -62 -22 -20 -48 -40 -57 -43 -10 -3 -18 -9 -18 -14 0 -5
-25 -35 -55 -67 l-54 -58 1 -117 c1 -65 -1 -121 -5 -124 -3 -4 1 -13 9 -21 11
-12 12 -18 3 -29 -8 -10 -9 -34 -4 -76 7 -58 10 -237 5 -318 -1 -19 3 -64 9
-100 35 -202 47 -512 27 -651 -7 -47 -5 -61 13 -97 12 -23 26 -42 31 -42 6 0
10 -9 10 -21 0 -23 27 -92 71 -185 16 -33 29 -70 29 -81 0 -12 7 -28 15 -37 8
-8 15 -19 15 -25 0 -21 24 -61 37 -61 16 0 16 -5 3 -28 -15 -24 21 -124 49
-137 15 -7 20 -16 17 -30 -3 -10 1 -26 8 -35 11 -12 38 -80 41 -100 0 -3 4
-10 8 -17 4 -6 8 -23 9 -37 1 -14 5 -26 9 -26 11 0 10 -330 -1 -351 -7 -13 -7
-19 0 -19 12 0 13 -37 1 -45 -5 -3 -9 -63 -9 -135 1 -74 -3 -135 -9 -142 -18
-23 -25 -71 -33 -233 -5 -88 -13 -187 -19 -220 -6 -33 -13 -96 -16 -140 -3
-44 -9 -87 -12 -95 -13 -36 -25 -170 -33 -370 -4 -118 -10 -270 -13 -337 -3
-85 -1 -123 6 -123 7 0 7 -4 -1 -12 -7 -7 -12 -31 -12 -55 0 -24 -4 -51 -10
-61 -13 -25 -50 -185 -50 -221 0 -18 -7 -34 -17 -39 -9 -6 -14 -16 -10 -25 3
-9 -1 -21 -8 -27 -8 -7 -12 -16 -9 -21 11 -19 10 -164 -2 -184 -7 -11 -12 -43
-13 -72 0 -28 -5 -71 -11 -95 -21 -94 -4 -340 26 -364 11 -9 12 -13 2 -22 -8
-6 -14 -44 -16 -104 -2 -51 -8 -98 -12 -103 -5 -6 -11 -119 -14 -250 -8 -348
-9 -370 -22 -368 -8 2 -10 -14 -8 -45 4 -57 4 -41 -2 -183 -3 -88 -9 -125 -24
-155 -16 -31 -20 -59 -20 -146 0 -61 -4 -109 -10 -113 -6 -4 -8 -10 -5 -15 3
-5 -4 -26 -15 -47 -11 -21 -20 -45 -20 -53 0 -9 -7 -25 -15 -36 -12 -15 -14
-66 -15 -274 0 -194 -4 -268 -15 -310 -24 -89 -26 -107 -16 -171 8 -49 7 -67
-7 -102 -21 -51 -32 -340 -13 -351 6 -4 11 -27 11 -51 0 -24 5 -47 11 -51 6
-3 8 -16 5 -29 -4 -14 0 -28 9 -35 11 -9 15 -33 15 -90 0 -69 2 -78 20 -83 19
-5 20 -14 20 -131 0 -79 4 -133 12 -145 9 -15 8 -26 -6 -56 -10 -21 -21 -55
-23 -76 -5 -37 -4 -39 26 -45 l31 -6 0 -70 c0 -55 -3 -69 -14 -65 -13 5 -18
-22 -5 -33 11 -10 39 -96 39 -120 0 -33 34 -87 59 -95 16 -5 21 -15 21 -41 0
-19 4 -34 8 -34 5 0 16 -18 26 -40 10 -22 21 -40 24 -40 9 0 117 -96 187 -165
37 -36 58 -49 80 -50 21 0 31 -5 33 -20 5 -24 30 -44 57 -44 61 -1 171 -14
175 -20 8 -13 91 -31 155 -35 33 -2 71 -6 84 -9 45 -12 259 -9 296 3 20 7 49
10 64 7 22 -5 30 0 49 29 12 18 22 36 22 39 0 3 14 19 30 35 27 26 30 36 30
88 0 41 -5 63 -15 72 -14 12 -14 15 0 30 8 9 15 26 15 37 0 12 13 33 30 46 16
14 30 32 30 40 0 20 36 50 50 42 6 -4 9 -13 6 -20 -5 -15 24 -13 81 4 17 5 34
7 37 3 3 -3 6 0 6 6 0 7 19 9 58 5 63 -5 108 -19 133 -40 21 -17 186 -20 202
-4 6 6 21 11 34 11 22 0 28 13 24 48 -1 6 7 12 18 12 32 0 51 11 51 30 0 26
25 43 47 32 20 -10 43 -6 58 12 20 23 105 88 105 81 0 -19 38 29 43 53 4 22
12 27 37 29 17 1 38 9 46 18 9 8 19 13 24 10 5 -3 11 5 15 17 3 13 10 32 14
43 17 40 32 125 27 142 -4 13 1 21 17 28 17 8 22 18 22 50 0 28 4 40 14 40 14
0 32 34 25 46 -2 4 3 12 11 19 11 9 12 17 4 31 -7 15 -6 19 5 19 16 0 31 34
21 50 -8 14 8 13 22 -1 9 -9 11 -7 9 7 -2 11 4 30 13 44 11 17 12 22 2 16 -20
-13 -4 55 18 74 26 23 44 71 31 84 -5 5 -10 21 -10 35 0 21 2 23 10 11 8 -13
10 -12 10 3 0 9 -4 17 -8 17 -12 0 -14 187 -3 195 7 4 7 15 1 31 -6 14 -10 43
-10 64 0 21 -4 40 -10 42 -5 2 -11 75 -14 168 -2 91 -5 165 -6 165 -1 0 -4 27
-6 60 -3 33 -9 64 -14 69 -16 16 -12 26 10 26 22 0 22 0 21 -85 -1 -60 11 -97
26 -81 4 4 10 43 12 86 2 66 6 80 21 85 16 5 18 14 14 63 -12 123 -11 148 7
190 13 31 16 49 9 62 -7 13 -6 19 4 23 8 3 16 28 20 59 3 29 9 67 11 83 3 17
7 47 10 68 2 21 8 44 12 50 10 13 10 24 -1 49 -4 9 -1 26 7 40 9 13 18 50 22
83 3 33 10 71 15 85 5 14 11 49 14 78 3 37 12 61 30 83 36 42 52 102 38 135
-7 13 -12 31 -12 38 0 8 -8 31 -17 52 -9 22 -16 42 -15 47 1 4 -26 34 -60 67
-35 33 -60 60 -56 60 4 0 -4 12 -18 27 -34 37 -54 87 -54 135 0 22 -6 49 -12
61 -7 12 -13 33 -14 47 0 14 -4 35 -8 48 -6 16 -3 27 8 35 15 12 22 78 31 297
1 36 3 65 4 65 1 0 4 20 6 45 2 25 4 50 6 55 1 6 -1 23 -6 38 -5 20 -3 33 9
46 18 20 22 101 6 101 -7 0 -7 6 -1 19 10 18 14 261 7 372 -2 32 -10 67 -16
80 -7 13 -14 39 -15 58 -1 20 -3 44 -4 54 0 9 -10 25 -21 34 -27 23 -26 124 1
107 5 -3 9 23 10 58 1 143 11 293 21 311 7 13 7 22 -1 30 -6 6 -11 49 -11 99
0 52 -4 88 -10 88 -16 0 -12 20 10 47 15 19 17 29 9 39 -5 7 -9 19 -7 26 2 8
-4 30 -13 49 -9 19 -23 48 -30 64 -8 17 -20 34 -26 38 -7 4 -13 17 -13 27 0
17 -24 78 -52 134 -8 15 -22 198 -18 241 5 65 4 308 -1 333 -4 17 -3 32 2 32
15 0 10 38 -11 75 -11 19 -19 43 -18 53 3 44 -4 74 -22 92 -13 13 -20 33 -20
56 0 21 -4 33 -10 29 -6 -4 -10 23 -10 74 0 45 -3 81 -7 81 -5 0 -9 16 -10 35
-1 19 2 35 7 35 5 0 12 17 15 38 9 55 37 152 47 158 4 3 8 32 8 64 0 32 4 71
10 85 5 14 12 45 14 68 3 23 10 74 16 112 7 39 14 92 16 120 3 27 8 52 12 55
4 3 8 14 10 25 5 42 24 131 33 153 6 15 6 38 0 60 -5 20 -14 56 -20 78 -6 23
-11 51 -11 62 0 11 -11 33 -24 49 -13 15 -26 38 -30 50 -4 12 -15 25 -25 28
-10 3 -32 21 -50 40 -17 19 -35 35 -40 35 -42 0 -145 201 -126 247 4 10 8 50
9 90 1 57 5 76 22 95 12 13 29 37 39 55 17 28 17 35 4 69 -8 20 -21 41 -29 46
-27 15 -95 41 -110 42 -19 1 -134 61 -160 83 -11 10 -20 23 -20 29 0 21 -34
74 -47 74 -7 0 -13 6 -13 14 0 19 -97 105 -127 112 -14 4 -22 12 -19 19 2 7
-4 21 -15 31 -10 9 -19 21 -19 26 0 16 -67 112 -105 151 -19 20 -35 42 -35 50
0 18 -35 54 -60 62 -13 4 -19 12 -16 21 3 8 9 20 12 28 9 24 -43 56 -79 49
l-32 -6 17 25 c15 23 15 26 -3 39 -11 8 -23 14 -27 14 -16 1 -62 38 -62 51 0
20 -45 35 -81 29 -36 -7 -69 10 -69 34 0 25 -33 53 -54 45 -12 -5 -19 0 -23
15 -6 24 -107 81 -143 81 -11 0 -20 4 -20 9 0 6 -27 24 -60 40 -72 37 -122 39
-255 10z"/>
<path d="M3215 10950 c3 -5 8 -10 11 -10 2 0 4 5 4 10 0 6 -5 10 -11 10 -5 0
-7 -4 -4 -10z"/>
<path d="M13540 8580 c0 -5 5 -10 10 -10 6 0 10 5 10 10 0 6 -4 10 -10 10 -5
0 -10 -4 -10 -10z"/>
<path d="M33652 2818 l-32 -20 36 -49 36 -49 -221 0 -221 0 0 -85 0 -85 40 0
40 0 0 50 0 50 365 0 365 0 0 -50 0 -50 39 0 39 0 0 85 1 85 -207 1 c-190 0
-205 1 -185 15 l22 16 -22 31 c-12 17 -31 41 -42 53 l-20 21 -33 -19z"/>
<path d="M28591 2724 c-19 -57 -46 -131 -62 -164 l-28 -60 32 -14 c18 -7 37
-10 42 -5 6 4 21 37 35 74 l25 66 40 -3 40 -3 -1 -70 c-1 -38 -2 -89 -3 -112
l-1 -43 -100 0 -100 0 0 -35 0 -35 95 0 c109 0 105 5 79 -94 -22 -84 -66 -164
-131 -236 l-55 -60 25 -30 26 -30 38 38 c72 69 127 153 157 240 l12 34 64 -83
c36 -45 74 -93 85 -105 l20 -23 29 24 c35 28 38 23 -88 172 -58 70 -86 110
-86 128 l0 25 98 0 98 0 -4 35 -4 35 -89 0 -89 0 1 115 2 115 77 0 c73 0 78 1
82 23 9 46 4 47 -149 47 -130 0 -144 2 -139 16 12 30 29 105 25 108 -2 2 -18
6 -35 9 l-30 6 -33 -105z"/>
<path d="M3470 2809 c0 -5 5 -7 10 -4 6 3 10 8 10 11 0 2 -4 4 -10 4 -5 0 -10
-5 -10 -11z"/>
<path d="M30313 2797 c-16 -34 -112 -147 -176 -207 l-57 -53 20 -31 c10 -17
23 -30 27 -28 35 12 263 268 263 296 0 10 -21 25 -61 43 -3 1 -11 -8 -16 -20z"/>
<path d="M31830 2751 c-23 -73 -106 -267 -125 -291 -7 -8 -24 -36 -39 -61 -26
-46 -26 -46 -9 -87 l18 -42 45 70 c24 39 47 70 50 70 3 0 5 -120 5 -267 l0
-268 37 -3 38 -3 2 368 3 368 37 96 37 97 -39 10 -40 10 -20 -67z"/>
<path d="M30482 2715 c-2 -27 1 -35 15 -36 101 -5 476 0 483 7 5 5 6 21 3 37
l-5 27 -247 0 -247 0 -2 -35z"/>
<path d="M31959 2738 c0 -7 -2 -21 -4 -31 -2 -10 3 -21 10 -24 8 -2 119 -6
247 -6 l233 -2 1 -325 c0 -179 -4 -337 -9 -352 -5 -15 -18 -30 -30 -34 -26 -9
-166 -6 -180 3 -6 4 -8 -3 -4 -18 4 -13 7 -34 7 -46 0 -22 2 -22 108 -20 187
4 181 -10 182 447 l1 352 43 -4 43 -3 -1 38 -1 37 -322 0 c-251 0 -323 -3
-324 -12z"/>
<path d="M29011 2305 l0 -415 39 0 40 0 0 50 0 50 130 0 130 0 0 -50 0 -50 38
0 37 0 -1 402 c-1 222 -2 409 -3 416 -1 9 -49 12 -206 12 l-204 0 0 -415z
m337 50 l0 -295 -129 0 -129 0 0 295 0 295 129 0 129 0 0 -295z"/>
<path d="M11650 2675 c-7 -9 -11 -18 -8 -20 3 -3 11 1 18 10 7 9 11 18 8 20
-3 3 -11 -1 -18 -10z"/>
<path d="M30340 2580 c0 -30 -144 -226 -217 -297 -24 -23 -43 -44 -43 -48 0
-4 7 -23 17 -42 l16 -35 59 63 58 63 0 -207 0 -207 40 0 40 0 0 256 0 256 50
76 c28 42 50 81 50 87 0 6 -16 19 -35 28 -19 9 -35 12 -35 7z"/>
<path d="M31984 2325 l0 -216 36 3 c30 3 35 6 32 26 -3 20 1 22 45 23 26 0 84
1 128 2 l80 2 3 188 2 187 -162 0 -163 0 -1 -215z m257 128 c0 -10 1 -63 1
-118 l0 -100 -94 -3 -95 -3 2 118 c1 65 3 119 4 121 0 1 42 2 91 2 79 0 90 -2
91 -17z"/>
<path d="M33350 2505 l0 -35 123 0 122 0 -30 -25 c-48 -39 -174 -101 -255
-125 -41 -13 -77 -24 -79 -26 -2 -1 6 -16 18 -33 18 -25 25 -28 49 -22 50 15
176 72 224 101 53 33 68 36 85 19 27 -27 -120 -136 -268 -199 -38 -16 -69 -27
-69 -24 0 2 -9 0 -21 -6 -19 -11 -19 -13 -5 -29 9 -10 16 -23 16 -29 0 -15 -1
-15 51 3 105 37 216 99 301 170 47 39 53 41 65 27 7 -10 13 -23 13 -31 0 -32
-170 -160 -275 -206 -33 -15 -74 -33 -92 -41 -17 -8 -36 -14 -43 -14 -6 0 -20
-5 -30 -10 -18 -10 -18 -12 -2 -40 20 -34 17 -35 145 20 106 46 179 89 258
153 32 26 64 47 69 47 6 0 10 -30 10 -69 0 -60 -4 -74 -26 -100 l-25 -30 -94
3 c-52 1 -92 -1 -89 -6 3 -4 8 -21 10 -35 3 -15 7 -30 10 -32 8 -8 139 -7 179
2 22 4 50 18 63 30 46 43 59 150 34 267 -7 31 -5 37 17 51 l26 15 42 -70 c50
-86 101 -141 179 -196 l58 -41 28 30 c15 17 28 34 28 38 0 4 -25 21 -54 36
-66 35 -151 118 -188 185 l-27 49 27 14 c15 8 53 29 85 48 l58 34 -23 26 c-13
14 -23 27 -24 28 0 1 -36 -19 -80 -45 -105 -62 -185 -105 -188 -100 -18 28
-66 87 -88 108 l-28 27 23 27 23 26 177 0 177 0 0 35 0 35 -345 0 -345 0 0
-35z"/>
<path d="M30425 2425 c0 -30 3 -35 25 -36 14 0 91 -1 171 -1 l147 -1 0 -189
c0 -238 3 -232 -129 -226 l-88 4 4 -30 c2 -17 4 -37 4 -43 1 -10 28 -13 100
-13 187 0 191 6 191 294 l0 205 93 -1 92 -2 1 37 1 37 -306 0 -306 0 0 -35z"/>
</g>
</svg>
